<svg width="32" height="32" viewBox="0 0 32 32" fill="none" xmlns="http://www.w3.org/2000/svg">
<path d="M9.34375 16.0001C9.34375 15.7349 9.44911 15.4805 9.63664 15.293C9.82418 15.1055 10.0785 15.0001 10.3438 15.0001H15.0011V10.3428C15.0011 10.0776 15.1064 9.8232 15.294 9.63567C15.4815 9.44813 15.7359 9.34277 16.0011 9.34277C16.2663 9.34277 16.5207 9.44813 16.7082 9.63567C16.8957 9.8232 17.0011 10.0776 17.0011 10.3428V15.0001H21.6584C21.9236 15.0001 22.178 15.1055 22.3655 15.293C22.5531 15.4805 22.6584 15.7349 22.6584 16.0001C22.6584 16.2653 22.5531 16.5197 22.3655 16.7072C22.178 16.8947 21.9236 17.0001 21.6584 17.0001H17.0011V21.6574C17.0011 21.9227 16.8957 22.177 16.7082 22.3645C16.5207 22.5521 16.2663 22.6574 16.0011 22.6574C15.7359 22.6574 15.4815 22.5521 15.294 22.3645C15.1064 22.177 15.0011 21.9227 15.0011 21.6574V17.0001H10.3438C10.0785 17.0001 9.82418 16.8947 9.63664 16.7072C9.44911 16.5197 9.34375 16.2653 9.34375 16.0001Z" fill="#FF5400"/>
<path fill-rule="evenodd" clip-rule="evenodd" d="M9.75644 5.02522C13.9064 4.56516 18.0945 4.56516 22.2444 5.02522C24.6804 5.29722 26.6471 7.21588 26.9324 9.66522C27.4258 13.8746 27.4258 18.1266 26.9324 22.3359C26.6458 24.7852 24.6791 26.7026 22.2444 26.9759C18.0945 27.436 13.9064 27.436 9.75644 26.9759C7.32044 26.7026 5.35377 24.7852 5.06844 22.3359C4.57614 18.1267 4.57614 13.8744 5.06844 9.66522C5.35377 7.21588 7.32177 5.29722 9.75644 5.02522ZM22.0231 7.01188C18.0203 6.5682 13.9806 6.5682 9.97777 7.01188C9.23676 7.09409 8.54511 7.42372 8.01454 7.94751C7.48398 8.4713 7.1455 9.15866 7.05377 9.89855C6.57957 13.9532 6.57957 18.0493 7.05377 22.1039C7.14577 22.8435 7.48438 23.5306 8.01492 24.0541C8.54546 24.5776 9.23696 24.9071 9.97777 24.9892C13.9471 25.4319 18.0538 25.4319 22.0231 24.9892C22.7637 24.9068 23.4549 24.5772 23.9851 24.0537C24.5154 23.5302 24.8538 22.8433 24.9458 22.1039C25.42 18.0493 25.42 13.9532 24.9458 9.89855C24.8536 9.15934 24.515 8.47275 23.9848 7.94951C23.4545 7.42628 22.7635 7.09692 22.0231 7.01455" fill="#FF5400"/>
</svg>
