<svg width="14" height="14" viewBox="0 0 14 14" fill="none" xmlns="http://www.w3.org/2000/svg">
<path d="M1.12538 4.64268C1.28575 4.47128 1.50322 4.375 1.72998 4.375C1.95674 4.375 2.17422 4.47128 2.33459 4.64268L6.56766 9.1682L10.8007 4.64268C10.962 4.47614 11.178 4.38399 11.4023 4.38607C11.6265 4.38816 11.841 4.48431 11.9995 4.65382C12.1581 4.82332 12.248 5.05263 12.25 5.29234C12.2519 5.53205 12.1657 5.763 12.0099 5.93542L7.17227 11.1073C7.0119 11.2787 6.79442 11.375 6.56766 11.375C6.3409 11.375 6.12343 11.2787 5.96306 11.1073L1.12538 5.93542C0.965062 5.76398 0.875 5.53148 0.875 5.28905C0.875 5.04663 0.965062 4.81413 1.12538 4.64268Z" fill="#FF5400"/>
</svg>
