<svg width="75" height="70" viewBox="0 0 75 70" fill="none" xmlns="http://www.w3.org/2000/svg">
<rect x="0.5" y="0.5" width="74" height="69" rx="3.5" fill="white"/>
<rect x="0.5" y="0.5" width="74" height="69" rx="3.5" stroke="#FF5400"/>
<g clip-path="url(#clip0_280_2925)">
<path d="M38.7812 32.25H27.1337L34.5875 24.7962L37.5 27.0375L40.4125 24.795L42.4163 26.7987C42.8165 26.5867 43.237 26.415 43.6712 26.2863L41.4112 24.0262L48.75 18.375V26.775C49.1942 26.9959 49.6133 27.2641 50 27.575V17.875C49.9987 17.3781 49.8007 16.902 49.4494 16.5506C49.098 16.1993 48.6219 16.0013 48.125 16H26.875C26.3781 16.0013 25.902 16.1993 25.5506 16.5506C25.1993 16.902 25.0013 17.3781 25 17.875V31.625C25 32.1223 25.1975 32.5992 25.5492 32.9508C25.9008 33.3025 26.3777 33.5 26.875 33.5H38.7812C38.7625 33.2938 38.75 33.0863 38.75 32.875C38.75 32.6637 38.7625 32.4562 38.7812 32.25ZM26.25 31.3662V18.3763L33.5888 24.0262L26.25 31.3662ZM48.125 17.25C48.1362 17.25 48.145 17.2563 48.1562 17.2563L37.5 25.4625L26.8437 17.2563C26.855 17.2563 26.8637 17.25 26.875 17.25H48.125ZM45.625 27.25C44.1337 27.2517 42.7039 27.8448 41.6494 28.8994C40.5948 29.9539 40.0017 31.3837 40 32.875C40.0089 33.0844 40.0298 33.293 40.0625 33.5C40.2131 34.8714 40.8635 36.1393 41.8895 37.0616C42.9156 37.9839 44.2454 38.4959 45.625 38.5H46.25V37.25H45.625C44.5756 37.2471 43.5624 36.8665 42.7705 36.178C41.9787 35.4894 41.4611 34.5388 41.3125 33.5C41.2765 33.2935 41.2556 33.0846 41.25 32.875C41.2494 32.0136 41.5033 31.1713 41.9797 30.4536C42.4562 29.736 43.134 29.1751 43.928 28.8413C44.7221 28.5075 45.5971 28.4156 46.4431 28.5773C47.2892 28.739 48.0687 29.1469 48.6838 29.75H47.5V30.3912C46.9622 29.9778 46.3034 29.7525 45.625 29.75C45.1128 29.7485 44.608 29.873 44.1552 30.1125C43.7024 30.352 43.3154 30.6991 43.0283 31.1232C42.7411 31.5474 42.5627 32.0357 42.5086 32.5451C42.4545 33.0544 42.5265 33.5693 42.7181 34.0443C42.9098 34.5193 43.2153 34.9399 43.6077 35.2691C44.0002 35.5984 44.4675 35.826 44.9686 35.9322C45.4698 36.0383 45.9893 36.0196 46.4815 35.8778C46.9737 35.7359 47.4235 35.4753 47.7913 35.1187C48.0066 35.4638 48.3284 35.7293 48.7081 35.875C49.0878 36.0208 49.5046 36.0389 49.8955 35.9266C50.2864 35.8143 50.63 35.5777 50.8744 35.2526C51.1188 34.9275 51.2507 34.5317 51.25 34.125V32.875C51.2322 31.3887 50.6338 29.9683 49.5827 28.9173C48.5317 27.8662 47.1113 27.2678 45.625 27.25ZM45.625 34.75C45.2385 34.7488 44.8619 34.628 44.5467 34.4042C44.2316 34.1803 43.9935 33.8645 43.865 33.5C43.791 33.2998 43.7521 33.0884 43.75 32.875C43.75 32.3777 43.9475 31.9008 44.2992 31.5492C44.6508 31.1975 45.1277 31 45.625 31C46.1223 31 46.5992 31.1975 46.9508 31.5492C47.3025 31.9008 47.5 32.3777 47.5 32.875C47.4979 33.0884 47.459 33.2998 47.385 33.5C47.2565 33.8645 47.0184 34.1803 46.7033 34.4042C46.3881 34.628 46.0115 34.7488 45.625 34.75ZM50 34.125C50 34.2908 49.9342 34.4497 49.8169 34.5669C49.6997 34.6842 49.5408 34.75 49.375 34.75C49.2092 34.75 49.0503 34.6842 48.9331 34.5669C48.8158 34.4497 48.75 34.2908 48.75 34.125V29.8163C49.5354 30.6431 49.9815 31.7348 50 32.875V34.125Z" fill="#FF5400"/>
</g>
<path d="M30.4263 57H24.5557V49.126H30.2437V50.0605H25.5977V52.4668H29.9429V53.4014H25.5977V56.0654H30.4263V57ZM39.4604 57H38.4453V53.3154C38.4453 52.8428 38.3773 52.5062 38.2412 52.3057C38.1051 52.1051 37.8778 52.0049 37.5591 52.0049C37.0685 52.0049 36.5869 52.3092 36.1143 52.918V57H35.1045V53.3154C35.1045 52.8428 35.0365 52.5062 34.9004 52.3057C34.7643 52.1051 34.5352 52.0049 34.2129 52.0049C33.7223 52.0049 33.2425 52.3092 32.7734 52.918V57H31.7583V51.3013H32.7734V52.0264C33.2533 51.457 33.785 51.1724 34.3687 51.1724C35.203 51.1724 35.7347 51.5161 35.9639 52.2036C36.3434 51.756 36.6657 51.4731 36.9307 51.355C37.1956 51.2332 37.4552 51.1724 37.7095 51.1724C38.8768 51.1724 39.4604 51.8724 39.4604 53.2725V57ZM44.5308 55.5015V54.2393H43.8379C42.3698 54.2393 41.6357 54.6385 41.6357 55.437C41.6357 55.7271 41.7432 55.9508 41.958 56.1084C42.1729 56.2624 42.4629 56.3394 42.8281 56.3394C43.1611 56.3394 43.4834 56.2642 43.7949 56.1138C44.1064 55.9634 44.3517 55.7593 44.5308 55.5015ZM44.5308 56.4146C44.0151 56.8944 43.3509 57.1343 42.5381 57.1343C41.9723 57.1343 41.5068 56.9821 41.1416 56.6777C40.7764 56.3698 40.5938 55.9741 40.5938 55.4907C40.5938 54.1587 41.7414 53.4927 44.0366 53.4927H44.5308C44.5308 53.0845 44.5093 52.7891 44.4663 52.6064C44.4233 52.4202 44.3034 52.2663 44.1064 52.1445C43.9095 52.0228 43.5962 51.9619 43.1665 51.9619C42.2642 51.9619 41.7987 52.2842 41.77 52.9287H40.7603C40.8354 51.7578 41.6554 51.1724 43.2202 51.1724C43.9507 51.1724 44.52 51.3174 44.9282 51.6074C45.3364 51.8975 45.5405 52.4668 45.5405 53.3154V57H44.5308V56.4146ZM48.0596 57H47.0444V51.3013H48.0596V57ZM48.0596 50.2217H47.0444V49.126H48.0596V50.2217ZM50.5732 57H49.5581V49.126H50.5732V57Z" fill="#FF5400"/>
<defs>
<clipPath id="clip0_280_2925">
<rect width="30" height="30" fill="white" transform="translate(22.5 11)"/>
</clipPath>
</defs>
</svg>
