<svg width="24" height="24" viewBox="0 0 24 24" fill="none" xmlns="http://www.w3.org/2000/svg">
<g clip-path="url(#clip0_1034_2345)">
<path d="M13.025 17H3.707L9.67 11.037L12 12.83L14.33 11.036L15.933 12.639C16.2532 12.4694 16.5896 12.332 16.937 12.229L15.129 10.421L21 5.9V12.62C21.3554 12.7967 21.6907 13.0113 22 13.26V5.5C21.9989 5.1025 21.8406 4.72158 21.5595 4.44051C21.2784 4.15943 20.8975 4.00106 20.5 4H3.5C3.1025 4.00106 2.72158 4.15943 2.44051 4.44051C2.15943 4.72158 2.00106 5.1025 2 5.5V16.5C2 16.8978 2.15804 17.2794 2.43934 17.5607C2.72064 17.842 3.10218 18 3.5 18H13.025C13.01 17.835 13 17.669 13 17.5C13 17.331 13.01 17.165 13.025 17ZM3 16.293V5.901L8.871 10.421L3 16.293ZM20.5 5C20.509 5 20.516 5.005 20.525 5.005L12 11.57L3.475 5.005C3.484 5.005 3.491 5 3.5 5H20.5ZM18.5 13C17.3069 13.0013 16.1631 13.4759 15.3195 14.3195C14.4759 15.1631 14.0013 16.3069 14 17.5C14.0071 17.6675 14.0238 17.8344 14.05 18C14.1704 19.0971 14.6908 20.1114 15.5116 20.8493C16.3324 21.5871 17.3963 21.9968 18.5 22H19V21H18.5C17.6605 20.9977 16.8499 20.6932 16.2164 20.1424C15.5829 19.5915 15.1689 18.831 15.05 18C15.0212 17.8348 15.0045 17.6677 15 17.5C14.9995 16.8109 15.2026 16.137 15.5838 15.5629C15.9649 14.9888 16.5072 14.5401 17.1424 14.273C17.7777 14.006 18.4777 13.9325 19.1545 14.0618C19.8314 14.1912 20.455 14.5175 20.947 15H20V15.513C19.5697 15.1822 19.0427 15.002 18.5 15C18.0902 14.9988 17.6864 15.0984 17.3242 15.29C16.9619 15.4816 16.6523 15.7592 16.4226 16.0986C16.1929 16.4379 16.0501 16.8286 16.0069 17.236C15.9636 17.6435 16.0212 18.0554 16.1745 18.4354C16.3278 18.8155 16.5722 19.152 16.8862 19.4153C17.2001 19.6787 17.574 19.8608 17.9749 19.9457C18.3758 20.0306 18.7914 20.0157 19.1852 19.9022C19.5789 19.7888 19.9388 19.5802 20.233 19.295C20.4052 19.571 20.6627 19.7834 20.9665 19.9C21.2702 20.0166 21.6037 20.0311 21.9164 19.9413C22.2291 19.8514 22.504 19.6621 22.6995 19.4021C22.8951 19.142 23.0005 18.8254 23 18.5V17.5C22.9857 16.311 22.507 15.1746 21.6662 14.3338C20.8254 13.493 19.689 13.0143 18.5 13ZM18.5 19C18.1908 18.999 17.8895 18.9024 17.6374 18.7233C17.3853 18.5443 17.1948 18.2916 17.092 18C17.0328 17.8399 17.0017 17.6707 17 17.5C17 17.1022 17.158 16.7206 17.4393 16.4393C17.7206 16.158 18.1022 16 18.5 16C18.8978 16 19.2794 16.158 19.5607 16.4393C19.842 16.7206 20 17.1022 20 17.5C19.9983 17.6707 19.9672 17.8399 19.908 18C19.8052 18.2916 19.6147 18.5443 19.3626 18.7233C19.1105 18.9024 18.8092 18.999 18.5 19ZM22 18.5C22 18.6326 21.9473 18.7598 21.8536 18.8536C21.7598 18.9473 21.6326 19 21.5 19C21.3674 19 21.2402 18.9473 21.1464 18.8536C21.0527 18.7598 21 18.6326 21 18.5V15.053C21.6283 15.7145 21.9852 16.5878 22 17.5V18.5Z" fill="#212529"/>
</g>
<defs>
<clipPath id="clip0_1034_2345">
<rect width="24" height="24" fill="white"/>
</clipPath>
</defs>
</svg>
