<svg width="31" height="30" viewBox="0 0 31 30" fill="none" xmlns="http://www.w3.org/2000/svg">
<g clip-path="url(#clip0_148_3742)">
<path d="M16.7812 21.25H5.13375L12.5875 13.7962L15.5 16.0375L18.4125 13.795L20.4163 15.7987C20.8165 15.5867 21.237 15.415 21.6712 15.2863L19.4112 13.0262L26.75 7.375V15.775C27.1942 15.9959 27.6133 16.2641 28 16.575V6.875C27.9987 6.37812 27.8007 5.90198 27.4494 5.55063C27.098 5.19929 26.6219 5.00132 26.125 5H4.875C4.37812 5.00132 3.90198 5.19929 3.55063 5.55063C3.19929 5.90198 3.00132 6.37812 3 6.875V20.625C3 21.1223 3.19754 21.5992 3.54917 21.9508C3.90081 22.3025 4.37772 22.5 4.875 22.5H16.7812C16.7625 22.2938 16.75 22.0863 16.75 21.875C16.75 21.6637 16.7625 21.4562 16.7812 21.25ZM4.25 20.3662V7.37625L11.5888 13.0262L4.25 20.3662ZM26.125 6.25C26.1362 6.25 26.145 6.25625 26.1562 6.25625L15.5 14.4625L4.84375 6.25625C4.855 6.25625 4.86375 6.25 4.875 6.25H26.125ZM23.625 16.25C22.1337 16.2517 20.7039 16.8448 19.6494 17.8994C18.5948 18.9539 18.0017 20.3837 18 21.875C18.0089 22.0844 18.0298 22.293 18.0625 22.5C18.2131 23.8714 18.8635 25.1393 19.8895 26.0616C20.9156 26.9839 22.2454 27.4959 23.625 27.5H24.25V26.25H23.625C22.5756 26.2471 21.5624 25.8665 20.7705 25.178C19.9787 24.4894 19.4611 23.5388 19.3125 22.5C19.2765 22.2935 19.2556 22.0846 19.25 21.875C19.2494 21.0136 19.5033 20.1713 19.9797 19.4536C20.4562 18.736 21.134 18.1751 21.928 17.8413C22.7221 17.5075 23.5971 17.4156 24.4431 17.5773C25.2892 17.739 26.0687 18.1469 26.6838 18.75H25.5V19.3912C24.9622 18.9778 24.3034 18.7525 23.625 18.75C23.1128 18.7485 22.608 18.873 22.1552 19.1125C21.7024 19.352 21.3154 19.6991 21.0283 20.1232C20.7411 20.5474 20.5627 21.0357 20.5086 21.5451C20.4545 22.0544 20.5265 22.5693 20.7181 23.0443C20.9098 23.5193 21.2153 23.9399 21.6077 24.2691C22.0002 24.5984 22.4675 24.826 22.9686 24.9322C23.4698 25.0383 23.9893 25.0196 24.4815 24.8778C24.9737 24.7359 25.4235 24.4753 25.7913 24.1187C26.0066 24.4638 26.3284 24.7293 26.7081 24.875C27.0878 25.0208 27.5046 25.0389 27.8955 24.9266C28.2864 24.8143 28.63 24.5777 28.8744 24.2526C29.1188 23.9275 29.2507 23.5317 29.25 23.125V21.875C29.2322 20.3887 28.6338 18.9683 27.5827 17.9173C26.5317 16.8662 25.1113 16.2678 23.625 16.25ZM23.625 23.75C23.2385 23.7488 22.8619 23.628 22.5467 23.4042C22.2316 23.1803 21.9935 22.8645 21.865 22.5C21.791 22.2998 21.7521 22.0884 21.75 21.875C21.75 21.3777 21.9475 20.9008 22.2992 20.5492C22.6508 20.1975 23.1277 20 23.625 20C24.1223 20 24.5992 20.1975 24.9508 20.5492C25.3025 20.9008 25.5 21.3777 25.5 21.875C25.4979 22.0884 25.459 22.2998 25.385 22.5C25.2565 22.8645 25.0184 23.1803 24.7033 23.4042C24.3881 23.628 24.0115 23.7488 23.625 23.75ZM28 23.125C28 23.2908 27.9342 23.4497 27.8169 23.5669C27.6997 23.6842 27.5408 23.75 27.375 23.75C27.2092 23.75 27.0503 23.6842 26.9331 23.5669C26.8158 23.4497 26.75 23.2908 26.75 23.125V18.8163C27.5354 19.6431 27.9815 20.7348 28 21.875V23.125Z" fill="#FF5400"/>
</g>
<defs>
<clipPath id="clip0_148_3742">
<rect width="30" height="30" fill="white" transform="translate(0.5)"/>
</clipPath>
</defs>
</svg>
