<svg width="12" height="18" viewBox="0 0 12 18" fill="none" xmlns="http://www.w3.org/2000/svg">
<path d="M11.3461 12.538C11.3461 14.0527 10.8244 15.3417 9.78111 16.405C8.73711 17.4683 7.46011 18 5.95011 18C4.44144 18 3.16211 17.4683 2.11211 16.405C1.06211 15.3417 0.537109 14.0527 0.537109 12.538V3.808C0.537109 2.75 0.901109 1.851 1.62911 1.111C2.35711 0.371 3.25011 0.000666667 4.30811 0C5.36544 0 6.25811 0.37 6.98611 1.11C7.71278 1.85067 8.07611 2.75 8.07611 3.808V12.077C8.07611 12.6637 7.87144 13.1693 7.46211 13.594C7.05278 14.0187 6.55344 14.231 5.96411 14.231C5.37478 14.231 4.86811 14.022 4.44411 13.604C4.02011 13.1867 3.80811 12.6777 3.80811 12.077V3.769H4.80811V12.077C4.80811 12.3963 4.91744 12.6683 5.13611 12.893C5.35411 13.1183 5.62278 13.231 5.94211 13.231C6.26211 13.231 6.53111 13.1183 6.74911 12.893C6.96778 12.6683 7.07711 12.3963 7.07711 12.077V3.788C7.07311 3.01133 6.80611 2.35267 6.27611 1.812C5.74544 1.27067 5.08944 1 4.30811 1C3.53278 1 2.87744 1.27367 2.34211 1.821C1.80611 2.36833 1.53811 3.03067 1.53811 3.808V12.538C1.53478 13.7727 1.96244 14.825 2.82111 15.695C3.68044 16.565 4.72678 17 5.96011 17C7.17544 17 8.20878 16.565 9.06011 15.695C9.91078 14.825 10.3398 13.7727 10.3471 12.538V3.77H11.3471L11.3461 12.538Z" fill="#FF5400"/>
</svg>
