<svg width="24" height="24" viewBox="0 0 24 24" fill="none" xmlns="http://www.w3.org/2000/svg">
<path d="M11.6053 15.375H11.7389C13.3026 15.375 14.4375 14.2219 14.4375 12.6334V5.92893C14.4375 4.28644 13.252 3 11.7387 3H11.6053C10.0652 3 8.8125 4.314 8.8125 5.92893V12.6334C8.8125 14.1963 10.0132 15.375 11.6053 15.375ZM9.9375 5.92893C9.9375 4.93415 10.6856 4.125 11.6053 4.125H11.7389C12.6358 4.125 13.3125 4.90069 13.3125 5.92893V12.6334C13.3125 13.6 12.6802 14.25 11.7386 14.25H11.6053C10.6232 14.25 9.9375 13.5854 9.9375 12.6334V5.92893ZM16.6875 9.18749C16.3767 9.18749 16.125 9.43949 16.125 9.74999V12.0891C16.125 15.436 14.9302 17.0625 12.4732 17.0625H10.8009C7.58765 17.0625 7.125 14.3583 7.125 12.0892V9.75001C7.125 9.43951 6.873 9.18751 6.5625 9.18751C6.252 9.18751 6 9.43951 6 9.75001V12.0892C6 15.9651 7.61522 18.1875 10.8009 18.1875H11.0625V19.875H8.25C7.9395 19.875 7.6875 20.127 7.6875 20.4375C7.6875 20.748 7.9395 21 8.25 21H15C15.3105 21 15.5625 20.748 15.5625 20.4375C15.5625 20.127 15.3105 19.875 15 19.875H12.1875V18.1875H12.4732C14.6524 18.1875 17.25 17.1294 17.25 12.0891V9.74999C17.25 9.43949 16.9983 9.18749 16.6875 9.18749Z" fill="#FF5400"/>
</svg>
