<svg width="18" height="18" viewBox="0 0 18 18" fill="none" xmlns="http://www.w3.org/2000/svg">
<g clip-path="url(#clip0_3142_364)">
<path d="M9 0C4.02922 0 0 4.02922 0 9C0 13.9708 4.02922 18 9 18C13.9708 18 18 13.9708 18 9C18 4.02922 13.9708 0 9 0ZM9 16.5938C4.80596 16.5938 1.40625 13.194 1.40625 9C1.40625 4.80596 4.80596 1.40625 9 1.40625C13.194 1.40625 16.5938 4.80596 16.5938 9C16.5938 13.194 13.194 16.5938 9 16.5938Z" fill="#FF5400"/>
<path d="M11.8125 6.1875H6.1875V11.8125H11.8125V6.1875Z" fill="#FF5400"/>
</g>
<defs>
<clipPath id="clip0_3142_364">
<rect width="18" height="18" fill="white"/>
</clipPath>
</defs>
</svg>
