<svg width="24" height="24" viewBox="0 0 24 24" fill="none" xmlns="http://www.w3.org/2000/svg">
<path d="M8.69169 2.3999C6.68372 2.3999 5.12805 4.30473 5.12805 6.55125C5.12805 8.79777 6.68372 10.7026 8.69169 10.7026C10.6997 10.7026 12.2553 8.79777 12.2553 6.55125C12.2553 4.30473 10.6997 2.3999 8.69169 2.3999ZM8.69169 3.43774C10.0577 3.43774 11.2371 4.7855 11.2371 6.55125C11.2371 8.31701 10.0577 9.66477 8.69169 9.66477C7.3257 9.66477 6.14624 8.31701 6.14624 6.55125C6.14624 4.7855 7.3257 3.43774 8.69169 3.43774ZM17.6008 4.73504C16.1322 4.73504 15.0553 6.19124 15.0553 7.84855C15.0553 9.50586 16.1322 10.9621 17.6008 10.9621C19.0693 10.9621 20.1462 9.50586 20.1462 7.84855C20.1462 6.19124 19.0693 4.73504 17.6008 4.73504ZM17.6008 5.77288C18.3815 5.77288 19.1281 6.63995 19.1281 7.84855C19.1281 9.05715 18.3815 9.92423 17.6008 9.92423C16.82 9.92423 16.0735 9.05715 16.0735 7.84855C16.0735 6.63995 16.82 5.77288 17.6008 5.77288ZM8.69169 11.7404C6.57691 11.7404 4.66378 12.173 3.23487 12.9242C1.80596 13.6754 0.800781 14.798 0.800781 16.1513V21.081C0.800795 21.2186 0.854435 21.3506 0.949905 21.4479C1.04538 21.5452 1.17486 21.5999 1.30987 21.5999H16.0735C16.2085 21.5999 16.338 21.5452 16.4335 21.4479C16.5289 21.3506 16.5826 21.2186 16.5826 21.081V19.2648H22.6917C22.8267 19.2648 22.9562 19.2101 23.0517 19.1128C23.1471 19.0155 23.2008 18.8835 23.2008 18.7458V15.3729C23.2008 14.3452 22.4655 13.4916 21.4508 12.9161C20.436 12.3407 19.0889 11.9999 17.6008 11.9999C16.1975 11.9999 14.9258 12.3098 13.9337 12.8269C12.5298 12.1411 10.705 11.7404 8.69169 11.7404ZM8.69169 12.7783C10.6664 12.7783 12.4396 13.1968 13.6792 13.8486C14.9188 14.5003 15.5644 15.3325 15.5644 16.1513V20.5621H1.81896V16.1513C1.81896 15.3325 2.46457 14.5003 3.70419 13.8486C4.94381 13.1968 6.71694 12.7783 8.69169 12.7783ZM17.6008 13.0377C18.933 13.0377 20.132 13.356 20.9576 13.8242C21.7832 14.2925 22.1826 14.8673 22.1826 15.3729V18.2269H16.5826V16.1513C16.5826 15.0956 15.9707 14.1837 15.0235 13.4756C15.7547 13.2061 16.6407 13.0377 17.6008 13.0377Z" fill="#212529"/>
</svg>
