<svg width="29" height="24" viewBox="0 0 29 24" fill="none" xmlns="http://www.w3.org/2000/svg">
<path d="M10.3636 0C7.85368 0 5.90909 2.38104 5.90909 5.18919C5.90909 7.99734 7.85368 10.3784 10.3636 10.3784C12.8736 10.3784 14.8182 7.99734 14.8182 5.18919C14.8182 2.38104 12.8736 0 10.3636 0ZM10.3636 1.2973C12.0711 1.2973 13.5455 2.98199 13.5455 5.18919C13.5455 7.39638 12.0711 9.08108 10.3636 9.08108C8.65615 9.08108 7.18182 7.39638 7.18182 5.18919C7.18182 2.98199 8.65615 1.2973 10.3636 1.2973ZM21.5 2.91892C19.6643 2.91892 18.3182 4.73917 18.3182 6.81081C18.3182 8.88245 19.6643 10.7027 21.5 10.7027C23.3357 10.7027 24.6818 8.88245 24.6818 6.81081C24.6818 4.73917 23.3357 2.91892 21.5 2.91892ZM21.5 4.21622C22.4759 4.21622 23.4091 5.30006 23.4091 6.81081C23.4091 8.32156 22.4759 9.40541 21.5 9.40541C20.5241 9.40541 19.5909 8.32156 19.5909 6.81081C19.5909 5.30006 20.5241 4.21622 21.5 4.21622ZM10.3636 11.6757C7.72016 11.6757 5.32875 12.2164 3.54261 13.1554C1.75648 14.0944 0.5 15.4976 0.5 17.1892V23.3514C0.500017 23.5234 0.567068 23.6884 0.686405 23.81C0.805743 23.9316 0.967595 24 1.13636 24H19.5909C19.7597 24 19.9215 23.9316 20.0409 23.81C20.1602 23.6884 20.2273 23.5234 20.2273 23.3514V21.0811H27.8636C28.0324 21.0811 28.1943 21.0127 28.3136 20.8911C28.4329 20.7694 28.5 20.6045 28.5 20.4324V16.2162C28.5 14.9316 27.5809 13.8646 26.3125 13.1453C25.0441 12.426 23.3602 12 21.5 12C19.7458 12 18.1562 12.3874 16.9162 13.0338C15.1612 12.1765 12.8803 11.6757 10.3636 11.6757ZM10.3636 12.973C12.8321 12.973 15.0485 13.4962 16.598 14.3108C18.1475 15.1254 18.9545 16.1657 18.9545 17.1892V22.7027H1.77273V17.1892C1.77273 16.1657 2.57974 15.1254 4.12926 14.3108C5.67879 13.4962 7.8952 12.973 10.3636 12.973ZM21.5 13.2973C23.1653 13.2973 24.664 13.6951 25.696 14.2804C26.7281 14.8657 27.2273 15.5843 27.2273 16.2162V19.7838H20.2273V17.1892C20.2273 15.8697 19.4625 14.7297 18.2784 13.8446C19.1924 13.5078 20.3 13.2973 21.5 13.2973Z" fill="#FF5400"/>
</svg>
