<svg width="24" height="24" viewBox="0 0 24 24" fill="none" xmlns="http://www.w3.org/2000/svg">
<path d="M11.9848 3.58811C12.6936 3.58811 13.3733 3.86967 13.8745 4.37084C14.3756 4.87201 14.6572 5.55175 14.6572 6.26051C14.6572 6.96928 14.3756 7.64901 13.8745 8.15019C13.3733 8.65136 12.6936 8.93291 11.9848 8.93291C11.2759 8.93291 10.596 8.6513 10.0947 8.15001C9.59341 7.64873 9.31179 6.96884 9.31179 6.25991C9.31179 5.55099 9.59341 4.8711 10.0947 4.36982C10.596 3.86853 11.2759 3.58811 11.9848 3.58811ZM11.9848 4.78691C11.7914 4.78691 11.6 4.825 11.4213 4.89899C11.2427 4.97299 11.0804 5.08145 10.9436 5.21817C10.8069 5.3549 10.6985 5.51721 10.6245 5.69585C10.5505 5.87449 10.5124 6.06596 10.5124 6.25931C10.5124 6.45267 10.5505 6.64414 10.6245 6.82278C10.6985 7.00142 10.8069 7.16373 10.9436 7.30046C11.0804 7.43718 11.2427 7.54564 11.4213 7.61963C11.6 7.69363 11.7914 7.73171 11.9848 7.73171C12.3755 7.73171 12.7501 7.57652 13.0264 7.30028C13.3026 7.02404 13.4578 6.64938 13.4578 6.25871C13.4578 5.86805 13.3026 5.49339 13.0264 5.21715C12.7501 4.9409 12.3755 4.78571 11.9848 4.78571M3.61959 13.8001C3.61959 13.9592 3.55638 14.1119 3.44385 14.2244C3.33133 14.3369 3.17872 14.4001 3.01959 14.4001C2.86046 14.4001 2.70785 14.3369 2.59533 14.2244C2.4828 14.1119 2.41959 13.9592 2.41959 13.8001V10.8169C2.41963 10.523 2.52754 10.2393 2.72285 10.0197C2.91816 9.80002 3.18729 9.6597 3.47919 9.62531L3.61959 9.61691H6.92799C6.75339 9.9182 6.64689 10.2541 6.61599 10.6009L6.60639 10.8169H3.61839L3.61959 13.8001ZM20.9884 14.4001C21.1475 14.4001 21.3001 14.3369 21.4127 14.2244C21.5252 14.1119 21.5884 13.9592 21.5884 13.8001V10.8169L21.58 10.6777C21.5459 10.3856 21.4057 10.1162 21.186 9.92062C20.9663 9.72506 20.6825 9.61699 20.3884 9.61691H17.0476C17.2228 9.92051 17.3356 10.2685 17.362 10.6381L17.368 10.8181H20.3884V13.8001C20.3884 13.9592 20.4516 14.1119 20.5641 14.2244C20.6766 14.3369 20.8293 14.4001 20.9884 14.4001ZM14.9692 9.61691C15.2633 9.61699 15.5471 9.72506 15.7668 9.92062C15.9865 10.1162 16.1267 10.3856 16.1608 10.6777L16.168 10.8169V13.8001C16.168 13.9592 16.1048 14.1119 15.9923 14.2244C15.8797 14.3369 15.7271 14.4001 15.568 14.4001C15.4089 14.4001 15.2562 14.3369 15.1437 14.2244C15.0312 14.1119 14.968 13.9592 14.968 13.8001V10.8169H9.00759V13.8001C9.00759 13.9592 8.94438 14.1119 8.83185 14.2244C8.71933 14.3369 8.56672 14.4001 8.40759 14.4001C8.24846 14.4001 8.09585 14.3369 7.98333 14.2244C7.87081 14.1119 7.80759 13.9592 7.80759 13.8001V10.8169C7.80763 10.523 7.91554 10.2393 8.11085 10.0197C8.30616 9.80002 8.57529 9.6597 8.86719 9.62531L9.00759 9.61691H14.9692ZM20.266 6.63731C20.266 6.02832 20.0241 5.44428 19.5935 5.01366C19.1628 4.58303 18.5788 4.34111 17.9698 4.34111C17.3608 4.34111 16.7768 4.58303 16.3461 5.01366C15.9155 5.44428 15.6736 6.02832 15.6736 6.63731C15.6736 7.2463 15.9155 7.83035 16.3461 8.26097C16.7768 8.69159 17.3608 8.93351 17.9698 8.93351C18.5788 8.93351 19.1628 8.69159 19.5935 8.26097C20.0241 7.83035 20.266 7.2463 20.266 6.63731ZM16.8736 6.63731C16.8736 6.34658 16.9891 6.06776 17.1947 5.86218C17.4002 5.65661 17.6791 5.54111 17.9698 5.54111C18.2605 5.54111 18.5393 5.65661 18.7449 5.86218C18.9505 6.06776 19.066 6.34658 19.066 6.63731C19.066 6.92804 18.9505 7.20687 18.7449 7.41244C18.5393 7.61802 18.2605 7.73351 17.9698 7.73351C17.6791 7.73351 17.4002 7.61802 17.1947 7.41244C16.9891 7.20687 16.8736 6.92804 16.8736 6.63731ZM6.01959 4.34051C6.62858 4.34051 7.21263 4.58243 7.64325 5.01306C8.07387 5.44368 8.31579 6.02772 8.31579 6.63671C8.31579 7.2457 8.07387 7.82975 7.64325 8.26037C7.21263 8.69099 6.62858 8.93291 6.01959 8.93291C5.4106 8.93291 4.82655 8.69099 4.39593 8.26037C3.96531 7.82975 3.72339 7.2457 3.72339 6.63671C3.72339 6.02772 3.96531 5.44368 4.39593 5.01306C4.82655 4.58243 5.4106 4.34051 6.01959 4.34051ZM6.01959 5.54051C5.72886 5.54051 5.45004 5.65601 5.24446 5.86158C5.03888 6.06716 4.92339 6.34598 4.92339 6.63671C4.92339 6.92744 5.03888 7.20627 5.24446 7.41184C5.45004 7.61742 5.72886 7.73291 6.01959 7.73291C6.31032 7.73291 6.58914 7.61742 6.79472 7.41184C7.0003 7.20627 7.11579 6.92744 7.11579 6.63671C7.11579 6.34598 7.0003 6.06716 6.79472 5.86158C6.58914 5.65601 6.31032 5.54051 6.01959 5.54051ZM3.00039 15.6001C2.84126 15.6001 2.68865 15.6633 2.57613 15.7758C2.4636 15.8884 2.40039 16.041 2.40039 16.2001V17.4001C2.40039 18.1958 2.71646 18.9588 3.27907 19.5214C3.84168 20.084 4.60474 20.4001 5.40039 20.4001H18.6004C19.396 20.4001 20.1591 20.084 20.7217 19.5214C21.2843 18.9588 21.6004 18.1958 21.6004 17.4001V16.2001C21.6004 16.041 21.5372 15.8884 21.4247 15.7758C21.3121 15.6633 21.1595 15.6001 21.0004 15.6001H3.00039ZM3.60039 17.4001V16.8001H20.4004V17.4001C20.4004 17.8775 20.2107 18.3353 19.8732 18.6729C19.5356 19.0105 19.0778 19.2001 18.6004 19.2001H5.40039C4.923 19.2001 4.46516 19.0105 4.1276 18.6729C3.79003 18.3353 3.60039 17.8775 3.60039 17.4001Z" fill="#FF5400"/>
</svg>
