<svg width="20" height="18" viewBox="0 0 20 18" fill="none" xmlns="http://www.w3.org/2000/svg">
<path d="M9.98479 0.588114C10.6936 0.588114 11.3733 0.86967 11.8745 1.37084C12.3756 1.87201 12.6572 2.55175 12.6572 3.26051C12.6572 3.96928 12.3756 4.64901 11.8745 5.15019C11.3733 5.65136 10.6936 5.93291 9.98479 5.93291C9.27587 5.93291 8.59598 5.6513 8.09469 5.15001C7.59341 4.64873 7.31179 3.96884 7.31179 3.25991C7.31179 2.55099 7.59341 1.8711 8.09469 1.36982C8.59598 0.868533 9.27587 0.588114 9.98479 0.588114ZM9.98479 1.78691C9.79143 1.78691 9.59997 1.825 9.42133 1.89899C9.24269 1.97299 9.08037 2.08145 8.94365 2.21817C8.80692 2.3549 8.69847 2.51721 8.62447 2.69585C8.55048 2.87449 8.51239 3.06596 8.51239 3.25931C8.51239 3.45267 8.55048 3.64414 8.62447 3.82278C8.69847 4.00142 8.80692 4.16373 8.94365 4.30046C9.08037 4.43718 9.24269 4.54564 9.42133 4.61963C9.59997 4.69363 9.79143 4.73171 9.98479 4.73171C10.3755 4.73171 10.7501 4.57652 11.0264 4.30028C11.3026 4.02404 11.4578 3.64938 11.4578 3.25871C11.4578 2.86805 11.3026 2.49339 11.0264 2.21715C10.7501 1.9409 10.3755 1.78571 9.98479 1.78571M1.61959 10.8001C1.61959 10.9592 1.55638 11.1119 1.44385 11.2244C1.33133 11.3369 1.17872 11.4001 1.01959 11.4001C0.860461 11.4001 0.707848 11.3369 0.595326 11.2244C0.482805 11.1119 0.419591 10.9592 0.419591 10.8001V7.81691C0.419629 7.52299 0.527538 7.23931 0.722849 7.01967C0.91816 6.80002 1.18729 6.6597 1.47919 6.62531L1.61959 6.61691H4.92799C4.75339 6.9182 4.64689 7.25407 4.61599 7.60091L4.60639 7.81691H1.61839L1.61959 10.8001ZM18.9884 11.4001C19.1475 11.4001 19.3001 11.3369 19.4127 11.2244C19.5252 11.1119 19.5884 10.9592 19.5884 10.8001V7.81691L19.58 7.67771C19.5459 7.3856 19.4057 7.11618 19.186 6.92062C18.9663 6.72506 18.6825 6.61699 18.3884 6.61691H15.0476C15.2228 6.92051 15.3356 7.26851 15.362 7.63811L15.368 7.81811H18.3884V10.8001C18.3884 10.9592 18.4516 11.1119 18.5641 11.2244C18.6766 11.3369 18.8293 11.4001 18.9884 11.4001ZM12.9692 6.61691C13.2633 6.61699 13.5471 6.72506 13.7668 6.92062C13.9865 7.11618 14.1267 7.3856 14.1608 7.67771L14.168 7.81691V10.8001C14.168 10.9592 14.1048 11.1119 13.9923 11.2244C13.8797 11.3369 13.7271 11.4001 13.568 11.4001C13.4089 11.4001 13.2562 11.3369 13.1437 11.2244C13.0312 11.1119 12.968 10.9592 12.968 10.8001V7.81691H7.00759V10.8001C7.00759 10.9592 6.94438 11.1119 6.83185 11.2244C6.71933 11.3369 6.56672 11.4001 6.40759 11.4001C6.24846 11.4001 6.09585 11.3369 5.98333 11.2244C5.87081 11.1119 5.80759 10.9592 5.80759 10.8001V7.81691C5.80763 7.52299 5.91554 7.23931 6.11085 7.01967C6.30616 6.80002 6.57529 6.6597 6.86719 6.62531L7.00759 6.61691H12.9692ZM18.266 3.63731C18.266 3.02832 18.0241 2.44428 17.5935 2.01366C17.1628 1.58303 16.5788 1.34111 15.9698 1.34111C15.3608 1.34111 14.7768 1.58303 14.3461 2.01366C13.9155 2.44428 13.6736 3.02832 13.6736 3.63731C13.6736 4.2463 13.9155 4.83035 14.3461 5.26097C14.7768 5.69159 15.3608 5.93351 15.9698 5.93351C16.5788 5.93351 17.1628 5.69159 17.5935 5.26097C18.0241 4.83035 18.266 4.2463 18.266 3.63731ZM14.8736 3.63731C14.8736 3.34658 14.9891 3.06776 15.1947 2.86218C15.4002 2.65661 15.6791 2.54111 15.9698 2.54111C16.2605 2.54111 16.5393 2.65661 16.7449 2.86218C16.9505 3.06776 17.066 3.34658 17.066 3.63731C17.066 3.92804 16.9505 4.20687 16.7449 4.41244C16.5393 4.61802 16.2605 4.73351 15.9698 4.73351C15.6791 4.73351 15.4002 4.61802 15.1947 4.41244C14.9891 4.20687 14.8736 3.92804 14.8736 3.63731ZM4.01959 1.34051C4.62858 1.34051 5.21263 1.58243 5.64325 2.01306C6.07387 2.44368 6.31579 3.02772 6.31579 3.63671C6.31579 4.2457 6.07387 4.82975 5.64325 5.26037C5.21263 5.69099 4.62858 5.93291 4.01959 5.93291C3.4106 5.93291 2.82655 5.69099 2.39593 5.26037C1.96531 4.82975 1.72339 4.2457 1.72339 3.63671C1.72339 3.02772 1.96531 2.44368 2.39593 2.01306C2.82655 1.58243 3.4106 1.34051 4.01959 1.34051ZM4.01959 2.54051C3.72886 2.54051 3.45004 2.65601 3.24446 2.86158C3.03888 3.06716 2.92339 3.34598 2.92339 3.63671C2.92339 3.92744 3.03888 4.20627 3.24446 4.41184C3.45004 4.61742 3.72886 4.73291 4.01959 4.73291C4.31032 4.73291 4.58914 4.61742 4.79472 4.41184C5.0003 4.20627 5.11579 3.92744 5.11579 3.63671C5.11579 3.34598 5.0003 3.06716 4.79472 2.86158C4.58914 2.65601 4.31032 2.54051 4.01959 2.54051ZM1.00039 12.6001C0.841261 12.6001 0.688648 12.6633 0.576127 12.7758C0.463605 12.8884 0.400391 13.041 0.400391 13.2001V14.4001C0.400391 15.1958 0.716461 15.9588 1.27907 16.5214C1.84168 17.084 2.60474 17.4001 3.40039 17.4001H16.6004C17.396 17.4001 18.1591 17.084 18.7217 16.5214C19.2843 15.9588 19.6004 15.1958 19.6004 14.4001V13.2001C19.6004 13.041 19.5372 12.8884 19.4247 12.7758C19.3121 12.6633 19.1595 12.6001 19.0004 12.6001H1.00039ZM1.60039 14.4001V13.8001H18.4004V14.4001C18.4004 14.8775 18.2107 15.3353 17.8732 15.6729C17.5356 16.0105 17.0778 16.2001 16.6004 16.2001H3.40039C2.923 16.2001 2.46516 16.0105 2.1276 15.6729C1.79003 15.3353 1.60039 14.8775 1.60039 14.4001Z" fill="#FF5400"/>
</svg>
