<svg width="22" height="22" viewBox="0 0 22 22" fill="none" xmlns="http://www.w3.org/2000/svg">
<mask id="path-1-outside-1_148_3792" maskUnits="userSpaceOnUse" x="0.376953" y="0.376221" width="21" height="21" fill="black">
<rect fill="white" x="0.376953" y="0.376221" width="21" height="21"/>
<path d="M10.9997 6.68762C10.1467 6.68762 9.31296 6.94054 8.60377 7.4144C7.89459 7.88827 7.34184 8.56179 7.01544 9.3498C6.68904 10.1378 6.60363 11.0049 6.77003 11.8414C6.93643 12.678 7.34716 13.4464 7.95027 14.0495C8.55339 14.6526 9.3218 15.0634 10.1583 15.2298C10.9949 15.3962 11.862 15.3108 12.65 14.9843C13.438 14.6579 14.1115 14.1052 14.5854 13.396C15.0592 12.6868 15.3122 11.853 15.3122 11.0001C15.3107 9.85683 14.8559 8.76079 14.0474 7.95236C13.239 7.14394 12.143 6.68911 10.9997 6.68762ZM10.9997 14.1876C10.3692 14.1876 9.75297 14.0007 9.22879 13.6504C8.70461 13.3002 8.29606 12.8024 8.0548 12.2199C7.81355 11.6375 7.75043 10.9966 7.87342 10.3783C7.99641 9.75995 8.29999 9.19199 8.74577 8.74621C9.19155 8.30043 9.75951 7.99685 10.3778 7.87386C10.9961 7.75087 11.637 7.814 12.2195 8.05525C12.8019 8.29651 13.2997 8.70506 13.65 9.22924C14.0002 9.75342 14.1872 10.3697 14.1872 11.0001C14.1872 11.8455 13.8513 12.6562 13.2536 13.254C12.6558 13.8518 11.845 14.1876 10.9997 14.1876ZM19.0622 11.2664C19.0678 11.0892 19.0678 10.9111 19.0622 10.7339L20.4994 8.93762C20.5543 8.86886 20.5923 8.78817 20.6104 8.70203C20.6285 8.6159 20.6261 8.52672 20.6034 8.44168C20.3786 7.59425 20.0419 6.78053 19.6022 6.02199C19.5585 5.94501 19.4973 5.87941 19.4235 5.83054C19.3497 5.78167 19.2654 5.7509 19.1775 5.74074L16.8853 5.48668C16.7647 5.3573 16.6397 5.2323 16.5103 5.11168L16.2553 2.81855C16.2451 2.73063 16.2144 2.64635 16.1655 2.57255C16.1166 2.49876 16.051 2.43754 15.974 2.39387C15.2164 1.95545 14.404 1.6194 13.5581 1.39449C13.4728 1.37221 13.3835 1.37028 13.2974 1.38884C13.2113 1.40741 13.1307 1.44595 13.0622 1.50137L11.2622 2.9423C11.0847 2.93668 10.9071 2.93668 10.7297 2.9423L8.93717 1.50043C8.86841 1.4455 8.78772 1.40746 8.70158 1.38939C8.61545 1.37132 8.52627 1.37371 8.44123 1.39637C7.5938 1.62123 6.78009 1.95794 6.02154 2.39762C5.94456 2.44129 5.87896 2.50251 5.83009 2.5763C5.78122 2.6501 5.75046 2.73438 5.74029 2.8223L5.48998 5.11449C5.36061 5.23574 5.23561 5.36074 5.11498 5.48949L2.82092 5.75012C2.733 5.76028 2.64871 5.79105 2.57492 5.83992C2.50112 5.88879 2.4399 5.95438 2.39623 6.03137C1.95782 6.78898 1.62177 7.60137 1.39686 8.4473C1.37512 8.53151 1.3732 8.61962 1.39126 8.70469C1.40931 8.78977 1.44685 8.8695 1.50092 8.93762L2.94186 10.7376C2.93623 10.9151 2.93623 11.0927 2.94186 11.2701L1.49998 13.0673C1.44505 13.1361 1.40702 13.2168 1.38894 13.3029C1.37087 13.389 1.37326 13.4782 1.39592 13.5632C1.62117 14.4091 1.95787 15.2212 2.39717 15.9782C2.44084 16.0552 2.50206 16.1208 2.57585 16.1697C2.64965 16.2186 2.73393 16.2493 2.82186 16.2595L5.11404 16.5136C5.23529 16.6429 5.36029 16.7679 5.48905 16.8886L5.74967 19.1789C5.75983 19.2668 5.7906 19.3511 5.83947 19.4249C5.88834 19.4987 5.95393 19.5599 6.03092 19.6036C6.78853 20.042 7.60092 20.378 8.44686 20.6029C8.5319 20.6256 8.62107 20.628 8.70721 20.6099C8.79334 20.5918 8.87403 20.5538 8.94279 20.4989L10.7334 19.0626C10.9106 19.0682 11.0887 19.0682 11.2659 19.0626L13.0669 20.5045C13.1667 20.5842 13.2907 20.6275 13.4184 20.6273C13.4671 20.6271 13.5156 20.6208 13.5628 20.6086C14.4086 20.3833 15.2207 20.0466 15.9778 19.6073C16.0548 19.5636 16.1204 19.5024 16.1692 19.4286C16.2181 19.3548 16.2489 19.2705 16.259 19.1826L16.5131 16.8904C16.6425 16.7698 16.7675 16.6448 16.8881 16.5154L19.1812 16.2604C19.2692 16.2503 19.3534 16.2195 19.4272 16.1706C19.501 16.1218 19.5623 16.0562 19.6059 15.9792C20.0445 15.2216 20.3806 14.4092 20.6053 13.5632C20.628 13.4782 20.6303 13.389 20.6123 13.3029C20.5942 13.2168 20.5562 13.1361 20.5012 13.0673L19.0622 11.2664ZM18.7715 15.1692L16.5553 15.4157C16.4168 15.4317 16.2892 15.4985 16.1972 15.6032C16.0119 15.812 15.8143 16.0095 15.6056 16.1948C15.5009 16.2868 15.4341 16.4144 15.4181 16.5529L15.1715 18.7682C14.6527 19.045 14.1075 19.2692 13.544 19.4376L11.8031 18.0445C11.7033 17.9648 11.5793 17.9215 11.4515 17.9217H11.4178C11.1393 17.9376 10.8601 17.9376 10.5815 17.9217C10.4424 17.9132 10.3051 17.9566 10.1962 18.0436L8.45623 19.4376C7.89332 19.2683 7.34874 19.0431 6.83061 18.7654L6.58404 16.5511C6.56808 16.4126 6.50126 16.2849 6.39654 16.1929C6.18781 16.0076 5.99028 15.8101 5.80498 15.6014C5.71296 15.4966 5.58534 15.4298 5.44686 15.4139L3.23154 15.1673C2.95512 14.6499 2.73089 14.1063 2.56217 13.5445L3.95529 11.8036C4.04225 11.6946 4.08568 11.5573 4.07717 11.4182C4.06123 11.1397 4.06123 10.8605 4.07717 10.582C4.08568 10.4429 4.04225 10.3056 3.95529 10.1967L2.56217 8.45668C2.73153 7.89377 2.95671 7.34919 3.23436 6.83105L5.44873 6.58449C5.58722 6.56853 5.71484 6.50171 5.80686 6.39699C5.99215 6.18826 6.18969 5.99072 6.39842 5.80543C6.50314 5.71341 6.56995 5.58579 6.58592 5.4473L6.83248 3.23199C7.34987 2.95557 7.89349 2.73134 8.45529 2.56262L10.1962 3.95574C10.3051 4.0427 10.4424 4.08613 10.5815 4.07762C10.8601 4.06168 11.1393 4.06168 11.4178 4.07762C11.5569 4.08613 11.6942 4.0427 11.8031 3.95574L13.5431 2.56262C14.106 2.73198 14.6506 2.95716 15.1687 3.2348L15.4153 5.45105C15.4313 5.58954 15.4981 5.71716 15.6028 5.80918C15.8115 5.99447 16.0091 6.19201 16.1944 6.40074C16.2864 6.50546 16.414 6.57228 16.5525 6.58824L18.7678 6.8348C19.0441 7.35159 19.2683 7.89458 19.4372 8.45574L18.044 10.1967C17.9571 10.3056 17.9137 10.4429 17.9222 10.582C17.9381 10.8605 17.9381 11.1397 17.9222 11.4182C17.9137 11.5573 17.9571 11.6946 18.044 11.8036L19.4372 13.5436C19.2684 14.1064 19.0439 14.651 18.7669 15.1692H18.7715Z"/>
</mask>
<path d="M10.9997 6.68762C10.1467 6.68762 9.31296 6.94054 8.60377 7.4144C7.89459 7.88827 7.34184 8.56179 7.01544 9.3498C6.68904 10.1378 6.60363 11.0049 6.77003 11.8414C6.93643 12.678 7.34716 13.4464 7.95027 14.0495C8.55339 14.6526 9.3218 15.0634 10.1583 15.2298C10.9949 15.3962 11.862 15.3108 12.65 14.9843C13.438 14.6579 14.1115 14.1052 14.5854 13.396C15.0592 12.6868 15.3122 11.853 15.3122 11.0001C15.3107 9.85683 14.8559 8.76079 14.0474 7.95236C13.239 7.14394 12.143 6.68911 10.9997 6.68762ZM10.9997 14.1876C10.3692 14.1876 9.75297 14.0007 9.22879 13.6504C8.70461 13.3002 8.29606 12.8024 8.0548 12.2199C7.81355 11.6375 7.75043 10.9966 7.87342 10.3783C7.99641 9.75995 8.29999 9.19199 8.74577 8.74621C9.19155 8.30043 9.75951 7.99685 10.3778 7.87386C10.9961 7.75087 11.637 7.814 12.2195 8.05525C12.8019 8.29651 13.2997 8.70506 13.65 9.22924C14.0002 9.75342 14.1872 10.3697 14.1872 11.0001C14.1872 11.8455 13.8513 12.6562 13.2536 13.254C12.6558 13.8518 11.845 14.1876 10.9997 14.1876ZM19.0622 11.2664C19.0678 11.0892 19.0678 10.9111 19.0622 10.7339L20.4994 8.93762C20.5543 8.86886 20.5923 8.78817 20.6104 8.70203C20.6285 8.6159 20.6261 8.52672 20.6034 8.44168C20.3786 7.59425 20.0419 6.78053 19.6022 6.02199C19.5585 5.94501 19.4973 5.87941 19.4235 5.83054C19.3497 5.78167 19.2654 5.7509 19.1775 5.74074L16.8853 5.48668C16.7647 5.3573 16.6397 5.2323 16.5103 5.11168L16.2553 2.81855C16.2451 2.73063 16.2144 2.64635 16.1655 2.57255C16.1166 2.49876 16.051 2.43754 15.974 2.39387C15.2164 1.95545 14.404 1.6194 13.5581 1.39449C13.4728 1.37221 13.3835 1.37028 13.2974 1.38884C13.2113 1.40741 13.1307 1.44595 13.0622 1.50137L11.2622 2.9423C11.0847 2.93668 10.9071 2.93668 10.7297 2.9423L8.93717 1.50043C8.86841 1.4455 8.78772 1.40746 8.70158 1.38939C8.61545 1.37132 8.52627 1.37371 8.44123 1.39637C7.5938 1.62123 6.78009 1.95794 6.02154 2.39762C5.94456 2.44129 5.87896 2.50251 5.83009 2.5763C5.78122 2.6501 5.75046 2.73438 5.74029 2.8223L5.48998 5.11449C5.36061 5.23574 5.23561 5.36074 5.11498 5.48949L2.82092 5.75012C2.733 5.76028 2.64871 5.79105 2.57492 5.83992C2.50112 5.88879 2.4399 5.95438 2.39623 6.03137C1.95782 6.78898 1.62177 7.60137 1.39686 8.4473C1.37512 8.53151 1.3732 8.61962 1.39126 8.70469C1.40931 8.78977 1.44685 8.8695 1.50092 8.93762L2.94186 10.7376C2.93623 10.9151 2.93623 11.0927 2.94186 11.2701L1.49998 13.0673C1.44505 13.1361 1.40702 13.2168 1.38894 13.3029C1.37087 13.389 1.37326 13.4782 1.39592 13.5632C1.62117 14.4091 1.95787 15.2212 2.39717 15.9782C2.44084 16.0552 2.50206 16.1208 2.57585 16.1697C2.64965 16.2186 2.73393 16.2493 2.82186 16.2595L5.11404 16.5136C5.23529 16.6429 5.36029 16.7679 5.48905 16.8886L5.74967 19.1789C5.75983 19.2668 5.7906 19.3511 5.83947 19.4249C5.88834 19.4987 5.95393 19.5599 6.03092 19.6036C6.78853 20.042 7.60092 20.378 8.44686 20.6029C8.5319 20.6256 8.62107 20.628 8.70721 20.6099C8.79334 20.5918 8.87403 20.5538 8.94279 20.4989L10.7334 19.0626C10.9106 19.0682 11.0887 19.0682 11.2659 19.0626L13.0669 20.5045C13.1667 20.5842 13.2907 20.6275 13.4184 20.6273C13.4671 20.6271 13.5156 20.6208 13.5628 20.6086C14.4086 20.3833 15.2207 20.0466 15.9778 19.6073C16.0548 19.5636 16.1204 19.5024 16.1692 19.4286C16.2181 19.3548 16.2489 19.2705 16.259 19.1826L16.5131 16.8904C16.6425 16.7698 16.7675 16.6448 16.8881 16.5154L19.1812 16.2604C19.2692 16.2503 19.3534 16.2195 19.4272 16.1706C19.501 16.1218 19.5623 16.0562 19.6059 15.9792C20.0445 15.2216 20.3806 14.4092 20.6053 13.5632C20.628 13.4782 20.6303 13.389 20.6123 13.3029C20.5942 13.2168 20.5562 13.1361 20.5012 13.0673L19.0622 11.2664ZM18.7715 15.1692L16.5553 15.4157C16.4168 15.4317 16.2892 15.4985 16.1972 15.6032C16.0119 15.812 15.8143 16.0095 15.6056 16.1948C15.5009 16.2868 15.4341 16.4144 15.4181 16.5529L15.1715 18.7682C14.6527 19.045 14.1075 19.2692 13.544 19.4376L11.8031 18.0445C11.7033 17.9648 11.5793 17.9215 11.4515 17.9217H11.4178C11.1393 17.9376 10.8601 17.9376 10.5815 17.9217C10.4424 17.9132 10.3051 17.9566 10.1962 18.0436L8.45623 19.4376C7.89332 19.2683 7.34874 19.0431 6.83061 18.7654L6.58404 16.5511C6.56808 16.4126 6.50126 16.2849 6.39654 16.1929C6.18781 16.0076 5.99028 15.8101 5.80498 15.6014C5.71296 15.4966 5.58534 15.4298 5.44686 15.4139L3.23154 15.1673C2.95512 14.6499 2.73089 14.1063 2.56217 13.5445L3.95529 11.8036C4.04225 11.6946 4.08568 11.5573 4.07717 11.4182C4.06123 11.1397 4.06123 10.8605 4.07717 10.582C4.08568 10.4429 4.04225 10.3056 3.95529 10.1967L2.56217 8.45668C2.73153 7.89377 2.95671 7.34919 3.23436 6.83105L5.44873 6.58449C5.58722 6.56853 5.71484 6.50171 5.80686 6.39699C5.99215 6.18826 6.18969 5.99072 6.39842 5.80543C6.50314 5.71341 6.56995 5.58579 6.58592 5.4473L6.83248 3.23199C7.34987 2.95557 7.89349 2.73134 8.45529 2.56262L10.1962 3.95574C10.3051 4.0427 10.4424 4.08613 10.5815 4.07762C10.8601 4.06168 11.1393 4.06168 11.4178 4.07762C11.5569 4.08613 11.6942 4.0427 11.8031 3.95574L13.5431 2.56262C14.106 2.73198 14.6506 2.95716 15.1687 3.2348L15.4153 5.45105C15.4313 5.58954 15.4981 5.71716 15.6028 5.80918C15.8115 5.99447 16.0091 6.19201 16.1944 6.40074C16.2864 6.50546 16.414 6.57228 16.5525 6.58824L18.7678 6.8348C19.0441 7.35159 19.2683 7.89458 19.4372 8.45574L18.044 10.1967C17.9571 10.3056 17.9137 10.4429 17.9222 10.582C17.9381 10.8605 17.9381 11.1397 17.9222 11.4182C17.9137 11.5573 17.9571 11.6946 18.044 11.8036L19.4372 13.5436C19.2684 14.1064 19.0439 14.651 18.7669 15.1692H18.7715Z" fill="white"/>
<path d="M10.9997 6.68762C10.1467 6.68762 9.31296 6.94054 8.60377 7.4144C7.89459 7.88827 7.34184 8.56179 7.01544 9.3498C6.68904 10.1378 6.60363 11.0049 6.77003 11.8414C6.93643 12.678 7.34716 13.4464 7.95027 14.0495C8.55339 14.6526 9.3218 15.0634 10.1583 15.2298C10.9949 15.3962 11.862 15.3108 12.65 14.9843C13.438 14.6579 14.1115 14.1052 14.5854 13.396C15.0592 12.6868 15.3122 11.853 15.3122 11.0001C15.3107 9.85683 14.8559 8.76079 14.0474 7.95236C13.239 7.14394 12.143 6.68911 10.9997 6.68762ZM10.9997 14.1876C10.3692 14.1876 9.75297 14.0007 9.22879 13.6504C8.70461 13.3002 8.29606 12.8024 8.0548 12.2199C7.81355 11.6375 7.75043 10.9966 7.87342 10.3783C7.99641 9.75995 8.29999 9.19199 8.74577 8.74621C9.19155 8.30043 9.75951 7.99685 10.3778 7.87386C10.9961 7.75087 11.637 7.814 12.2195 8.05525C12.8019 8.29651 13.2997 8.70506 13.65 9.22924C14.0002 9.75342 14.1872 10.3697 14.1872 11.0001C14.1872 11.8455 13.8513 12.6562 13.2536 13.254C12.6558 13.8518 11.845 14.1876 10.9997 14.1876ZM19.0622 11.2664C19.0678 11.0892 19.0678 10.9111 19.0622 10.7339L20.4994 8.93762C20.5543 8.86886 20.5923 8.78817 20.6104 8.70203C20.6285 8.6159 20.6261 8.52672 20.6034 8.44168C20.3786 7.59425 20.0419 6.78053 19.6022 6.02199C19.5585 5.94501 19.4973 5.87941 19.4235 5.83054C19.3497 5.78167 19.2654 5.7509 19.1775 5.74074L16.8853 5.48668C16.7647 5.3573 16.6397 5.2323 16.5103 5.11168L16.2553 2.81855C16.2451 2.73063 16.2144 2.64635 16.1655 2.57255C16.1166 2.49876 16.051 2.43754 15.974 2.39387C15.2164 1.95545 14.404 1.6194 13.5581 1.39449C13.4728 1.37221 13.3835 1.37028 13.2974 1.38884C13.2113 1.40741 13.1307 1.44595 13.0622 1.50137L11.2622 2.9423C11.0847 2.93668 10.9071 2.93668 10.7297 2.9423L8.93717 1.50043C8.86841 1.4455 8.78772 1.40746 8.70158 1.38939C8.61545 1.37132 8.52627 1.37371 8.44123 1.39637C7.5938 1.62123 6.78009 1.95794 6.02154 2.39762C5.94456 2.44129 5.87896 2.50251 5.83009 2.5763C5.78122 2.6501 5.75046 2.73438 5.74029 2.8223L5.48998 5.11449C5.36061 5.23574 5.23561 5.36074 5.11498 5.48949L2.82092 5.75012C2.733 5.76028 2.64871 5.79105 2.57492 5.83992C2.50112 5.88879 2.4399 5.95438 2.39623 6.03137C1.95782 6.78898 1.62177 7.60137 1.39686 8.4473C1.37512 8.53151 1.3732 8.61962 1.39126 8.70469C1.40931 8.78977 1.44685 8.8695 1.50092 8.93762L2.94186 10.7376C2.93623 10.9151 2.93623 11.0927 2.94186 11.2701L1.49998 13.0673C1.44505 13.1361 1.40702 13.2168 1.38894 13.3029C1.37087 13.389 1.37326 13.4782 1.39592 13.5632C1.62117 14.4091 1.95787 15.2212 2.39717 15.9782C2.44084 16.0552 2.50206 16.1208 2.57585 16.1697C2.64965 16.2186 2.73393 16.2493 2.82186 16.2595L5.11404 16.5136C5.23529 16.6429 5.36029 16.7679 5.48905 16.8886L5.74967 19.1789C5.75983 19.2668 5.7906 19.3511 5.83947 19.4249C5.88834 19.4987 5.95393 19.5599 6.03092 19.6036C6.78853 20.042 7.60092 20.378 8.44686 20.6029C8.5319 20.6256 8.62107 20.628 8.70721 20.6099C8.79334 20.5918 8.87403 20.5538 8.94279 20.4989L10.7334 19.0626C10.9106 19.0682 11.0887 19.0682 11.2659 19.0626L13.0669 20.5045C13.1667 20.5842 13.2907 20.6275 13.4184 20.6273C13.4671 20.6271 13.5156 20.6208 13.5628 20.6086C14.4086 20.3833 15.2207 20.0466 15.9778 19.6073C16.0548 19.5636 16.1204 19.5024 16.1692 19.4286C16.2181 19.3548 16.2489 19.2705 16.259 19.1826L16.5131 16.8904C16.6425 16.7698 16.7675 16.6448 16.8881 16.5154L19.1812 16.2604C19.2692 16.2503 19.3534 16.2195 19.4272 16.1706C19.501 16.1218 19.5623 16.0562 19.6059 15.9792C20.0445 15.2216 20.3806 14.4092 20.6053 13.5632C20.628 13.4782 20.6303 13.389 20.6123 13.3029C20.5942 13.2168 20.5562 13.1361 20.5012 13.0673L19.0622 11.2664ZM18.7715 15.1692L16.5553 15.4157C16.4168 15.4317 16.2892 15.4985 16.1972 15.6032C16.0119 15.812 15.8143 16.0095 15.6056 16.1948C15.5009 16.2868 15.4341 16.4144 15.4181 16.5529L15.1715 18.7682C14.6527 19.045 14.1075 19.2692 13.544 19.4376L11.8031 18.0445C11.7033 17.9648 11.5793 17.9215 11.4515 17.9217H11.4178C11.1393 17.9376 10.8601 17.9376 10.5815 17.9217C10.4424 17.9132 10.3051 17.9566 10.1962 18.0436L8.45623 19.4376C7.89332 19.2683 7.34874 19.0431 6.83061 18.7654L6.58404 16.5511C6.56808 16.4126 6.50126 16.2849 6.39654 16.1929C6.18781 16.0076 5.99028 15.8101 5.80498 15.6014C5.71296 15.4966 5.58534 15.4298 5.44686 15.4139L3.23154 15.1673C2.95512 14.6499 2.73089 14.1063 2.56217 13.5445L3.95529 11.8036C4.04225 11.6946 4.08568 11.5573 4.07717 11.4182C4.06123 11.1397 4.06123 10.8605 4.07717 10.582C4.08568 10.4429 4.04225 10.3056 3.95529 10.1967L2.56217 8.45668C2.73153 7.89377 2.95671 7.34919 3.23436 6.83105L5.44873 6.58449C5.58722 6.56853 5.71484 6.50171 5.80686 6.39699C5.99215 6.18826 6.18969 5.99072 6.39842 5.80543C6.50314 5.71341 6.56995 5.58579 6.58592 5.4473L6.83248 3.23199C7.34987 2.95557 7.89349 2.73134 8.45529 2.56262L10.1962 3.95574C10.3051 4.0427 10.4424 4.08613 10.5815 4.07762C10.8601 4.06168 11.1393 4.06168 11.4178 4.07762C11.5569 4.08613 11.6942 4.0427 11.8031 3.95574L13.5431 2.56262C14.106 2.73198 14.6506 2.95716 15.1687 3.2348L15.4153 5.45105C15.4313 5.58954 15.4981 5.71716 15.6028 5.80918C15.8115 5.99447 16.0091 6.19201 16.1944 6.40074C16.2864 6.50546 16.414 6.57228 16.5525 6.58824L18.7678 6.8348C19.0441 7.35159 19.2683 7.89458 19.4372 8.45574L18.044 10.1967C17.9571 10.3056 17.9137 10.4429 17.9222 10.582C17.9381 10.8605 17.9381 11.1397 17.9222 11.4182C17.9137 11.5573 17.9571 11.6946 18.044 11.8036L19.4372 13.5436C19.2684 14.1064 19.0439 14.651 18.7669 15.1692H18.7715Z" stroke="white" mask="url(#path-1-outside-1_148_3792)"/>
</svg>
