<svg width="24" height="24" viewBox="0 0 24 24" fill="none" xmlns="http://www.w3.org/2000/svg">
<path fill-rule="evenodd" clip-rule="evenodd" d="M9.88145 9.09167C9.77515 7.83925 8.75739 6.85693 7.51757 6.85693C6.20699 6.85693 5.14453 7.95459 5.14453 9.30864C5.14453 10.6627 6.20699 11.7603 7.51757 11.7603C8.54549 11.7603 9.42077 11.0851 9.75051 10.1405H11.6776V11.4753C11.6776 11.765 11.9049 11.9998 12.1852 11.9998C12.4656 11.9998 12.6928 11.765 12.6928 11.4753V10.1405H13.5579V11.4753C13.5579 11.765 13.7851 11.9998 14.0655 11.9998C14.3458 11.9998 14.5731 11.765 14.5731 11.4753V10.1405C14.5731 9.56128 14.1186 9.09167 13.5579 9.09167H9.88145ZM8.87537 9.30864C8.87537 10.0834 8.26747 10.7114 7.51757 10.7114C6.7677 10.7114 6.15977 10.0834 6.15977 9.30864C6.15977 8.53388 6.7677 7.90583 7.51757 7.90583C8.26747 7.90583 8.87537 8.53388 8.87537 9.30864Z" fill="#212529"/>
<path fill-rule="evenodd" clip-rule="evenodd" d="M13.9115 14.641C12.6173 15.7926 10.9165 16.4914 9.05356 16.4914C5.0005 16.4914 1.71484 13.1835 1.71484 9.10289C1.71484 5.02231 5.0005 1.71436 9.05356 1.71436C13.1066 1.71436 16.3923 5.02231 16.3923 9.10289C16.3923 10.951 15.7184 12.6405 14.6044 13.9361L16.1148 15.4568C16.6856 15.1486 17.412 15.2369 17.8936 15.7218L20.9874 18.8367C21.5764 19.4296 21.5764 20.391 20.9874 20.9839C20.3985 21.5769 19.4436 21.5769 18.8546 20.9839L15.7608 17.8691C15.3087 17.4139 15.2036 16.7417 15.4457 16.1856L13.9115 14.641ZM15.4072 9.10289C15.4072 12.6357 12.5626 15.4997 9.05356 15.4997C5.54453 15.4997 2.69989 12.6357 2.69989 9.10289C2.69989 5.57004 5.54453 2.70609 9.05356 2.70609C12.5626 2.70609 15.4072 5.57004 15.4072 9.10289ZM20.2909 19.5379L17.1971 16.4231C16.9928 16.2175 16.6616 16.2175 16.4573 16.4231C16.2531 16.6288 16.2531 16.9622 16.4573 17.1679L19.5511 20.2827C19.7554 20.4883 20.0866 20.4883 20.2909 20.2827C20.4952 20.077 20.4952 19.7436 20.2909 19.5379Z" fill="#212529"/>
</svg>
