<svg width="31" height="30" viewBox="0 0 31 30" fill="none" xmlns="http://www.w3.org/2000/svg">
<path fill-rule="evenodd" clip-rule="evenodd" d="M12.8489 11.365C12.716 9.79942 11.4438 8.57153 9.89404 8.57153C8.25581 8.57153 6.92773 9.9436 6.92773 11.6362C6.92773 13.3287 8.25581 14.7008 9.89404 14.7008C11.1789 14.7008 12.273 13.8567 12.6852 12.676H15.0941V14.3445C15.0941 14.7066 15.3782 15.0001 15.7286 15.0001C16.079 15.0001 16.3631 14.7066 16.3631 14.3445V12.676H17.4444V14.3445C17.4444 14.7066 17.7285 15.0001 18.0789 15.0001C18.4293 15.0001 18.7134 14.7066 18.7134 14.3445V12.676C18.7134 11.952 18.1453 11.365 17.4444 11.365H12.8489ZM11.5913 11.6362C11.5913 12.6046 10.8314 13.3897 9.89404 13.3897C8.95669 13.3897 8.19679 12.6046 8.19679 11.6362C8.19679 10.6677 8.95669 9.88265 9.89404 9.88265C10.8314 9.88265 11.5913 10.6677 11.5913 11.6362Z" fill="#FF5400"/>
<path fill-rule="evenodd" clip-rule="evenodd" d="M17.8884 18.3011C16.2707 19.7406 14.1447 20.6142 11.816 20.6142C6.74964 20.6142 2.64258 16.4792 2.64258 11.3785C2.64258 6.27777 6.74964 2.14282 11.816 2.14282C16.8823 2.14282 20.9894 6.27777 20.9894 11.3785C20.9894 13.6886 20.147 15.8006 18.7546 17.42L20.6425 19.3208C21.3561 18.9356 22.264 19.0461 22.8661 19.6522L26.7333 23.5457C27.4695 24.2869 27.4695 25.4886 26.7333 26.2298C25.9971 26.971 24.8035 26.971 24.0673 26.2298L20.2001 22.3363C19.6349 21.7673 19.5036 20.927 19.8061 20.2319L17.8884 18.3011ZM19.7581 11.3785C19.7581 15.7946 16.2023 19.3745 11.816 19.3745C7.42969 19.3745 3.87389 15.7946 3.87389 11.3785C3.87389 6.96243 7.42969 3.38249 11.816 3.38249C16.2023 3.38249 19.7581 6.96243 19.7581 11.3785ZM25.8626 24.4223L21.9954 20.5288C21.74 20.2717 21.3261 20.2717 21.0707 20.5288C20.8154 20.7858 20.8154 21.2026 21.0707 21.4597L24.9379 25.3532C25.1933 25.6103 25.6073 25.6103 25.8626 25.3532C26.118 25.0961 26.118 24.6793 25.8626 24.4223Z" fill="#FF5400"/>
</svg>
