<svg width="24" height="24" viewBox="0 0 24 24" fill="none" xmlns="http://www.w3.org/2000/svg">
<g clip-path="url(#clip0_1034_2379)">
<path d="M21.2607 12.7418H8.26619C7.85144 12.7418 7.51619 12.4058 7.51619 11.9918C7.51619 11.5778 7.85144 11.2418 8.26619 11.2418H21.2142L18.5014 8.529C18.2082 8.2365 18.2082 7.761 18.5014 7.4685C18.7947 7.176 19.2694 7.176 19.5619 7.4685L23.9922 12.015L19.5619 16.5623C19.4149 16.7085 19.2237 16.782 19.0317 16.782C18.8397 16.782 18.6484 16.7085 18.5014 16.5623C18.2082 16.2698 18.2082 15.795 18.5014 15.5018L21.2607 12.7418ZM1.50719 0H14.2572C15.0859 0 15.7572 0.67125 15.7572 1.5V8.25H14.2474V2.415C14.2474 1.914 13.8409 1.5075 13.3399 1.5075H2.44769C1.94594 1.5075 1.54019 1.914 1.54019 2.415L1.51619 21.594C1.51619 22.095 1.92194 22.5015 2.42369 22.5015H13.3384C13.8394 22.5015 14.2459 22.095 14.2459 21.594V15.726L15.7557 15.7283V22.5007C15.7557 23.3295 15.0844 24.0007 14.2557 24.0007H1.50644C0.677687 24.0007 0.00568771 23.3295 0.00568771 22.5007V1.50075C0.00568771 0.672 0.677687 0.00075 1.50569 0.00075L1.50719 0Z" fill="#212529"/>
</g>
<defs>
<clipPath id="clip0_1034_2379">
<rect width="24" height="24" fill="white" transform="matrix(-1 0 0 1 24 0)"/>
</clipPath>
</defs>
</svg>
