<svg width="24" height="18" viewBox="0 0 24 18" fill="none" xmlns="http://www.w3.org/2000/svg">
<path fill-rule="evenodd" clip-rule="evenodd" d="M22.5 15C22.5 15.1523 22.4707 15.2963 22.4287 15.4335L15.75 8.25L22.5 3V15ZM2.667 16.4595L9.43499 9.24749L12 11.1863L14.454 9.2355L21.333 16.4595C21.2257 16.4843 2.77425 16.4843 2.667 16.4595ZM1.5 15V3L8.25 8.25L1.57125 15.4335C1.52925 15.2963 1.5 15.1523 1.5 15ZM21.75 1.5L12 9L2.25 1.5H21.75ZM21 0H3C1.34325 0 0 1.34325 0 3V15C0 16.6567 1.34325 18 3 18H21C22.6567 18 24 16.6567 24 15V3C24 1.34325 22.6567 0 21 0Z" fill="white"/>
</svg>
