<svg width="24" height="24" viewBox="0 0 24 24" fill="none" xmlns="http://www.w3.org/2000/svg">
<path d="M2.93411 4C1.75051 4 0.800781 5.02988 0.800781 6.26726V17.7241C0.800781 18.9615 1.75051 20 2.93411 20H21.0674C22.2511 20 23.2008 18.9615 23.2008 17.7241V6.26726C23.2008 5.02988 22.2511 4 21.0674 4H2.93411ZM2.93411 5.10345H21.0674C21.2239 5.10345 21.3753 5.14295 21.5091 5.2069L12.6925 13.6466C12.2851 14.0364 11.7422 14.0364 11.3341 13.6466L2.50078 5.2069C2.63291 5.14497 2.78027 5.10345 2.93411 5.10345ZM1.88414 6.12069L8.14246 12.1034L2.00078 18.2845C1.91974 18.1189 1.86745 17.9312 1.86745 17.7241V6.26726C1.86745 6.21655 1.87881 6.16927 1.88414 6.12069ZM22.1175 6.12924C22.1223 6.17509 22.134 6.21942 22.134 6.26717V17.7241C22.134 17.9268 22.0869 18.1126 22.009 18.2758L15.884 12.0948L22.1175 6.12924ZM15.1091 12.8361L21.1008 18.8965C21.0896 18.8965 21.0786 18.8965 21.0674 18.8965H2.93411C2.92558 18.8965 2.91758 18.8967 2.90905 18.8965L8.92571 12.8447L10.609 14.4568C11.4004 15.2129 12.6262 15.2139 13.4174 14.4568L15.1091 12.8361Z" fill="#212529"/>
</svg>
