<svg width="28" height="28" viewBox="0 0 28 28" fill="none" xmlns="http://www.w3.org/2000/svg">
<path fill-rule="evenodd" clip-rule="evenodd" d="M26.25 21C26.25 21.1776 26.2159 21.3456 26.1669 21.5058L18.375 13.125L26.25 7V21ZM3.1115 22.7028L11.0075 14.2887L14 16.5506L16.863 14.2747L24.8885 22.7028C24.7634 22.7316 3.23662 22.7316 3.1115 22.7028ZM1.75 21V7L9.625 13.125L1.83313 21.5058C1.78413 21.3456 1.75 21.1776 1.75 21ZM25.375 5.25L14 14L2.625 5.25H25.375ZM24.5 3.5H3.5C1.56712 3.5 0 5.06712 0 7V21C0 22.9329 1.56712 24.5 3.5 24.5H24.5C26.4329 24.5 28 22.9329 28 21V7C28 5.06712 26.4329 3.5 24.5 3.5Z" fill="#FF5400"/>
</svg>
