<svg width="31" height="30" viewBox="0 0 31 30" fill="none" xmlns="http://www.w3.org/2000/svg">
<path d="M17.9161 6.36582C19.2286 6.85772 20.3668 7.73887 21.2074 8.87645L21.2333 8.91423C22.1843 10.2174 22.7511 11.8519 22.7511 13.6241C22.7511 17.2399 23.4695 18.1504 24.1333 18.9922C24.8377 19.8848 25.4937 20.7164 25.4937 23.4022C25.4937 23.759 25.2209 24.0486 24.8848 24.0486H19.2426C19.023 24.8206 18.5982 25.498 18.0357 26.0067C17.3514 26.6256 16.4655 27 15.5002 27C14.5352 27 13.6496 26.6256 12.9653 26.0067C12.4029 25.4976 11.9777 24.8206 11.7577 24.0486H6.11589C5.77985 24.0486 5.50707 23.759 5.50707 23.4022C5.50707 20.716 6.16261 19.8852 6.86704 18.9922C7.53193 18.1493 8.2518 17.2361 8.2518 13.6241C8.24929 11.8362 8.82577 10.1888 9.79219 8.88027C10.6328 7.74039 11.7718 6.85925 13.0847 6.36659C13.0261 6.14029 12.9944 5.90293 12.9944 5.6606C12.9944 4.92676 13.2755 4.26085 13.7287 3.77963C14.1819 3.29842 14.8091 3 15.5002 3C16.1913 3 16.8185 3.29842 17.2717 3.77963C17.7249 4.26085 18.0059 4.92638 18.0059 5.66022C18.0059 5.90255 17.9743 6.13991 17.9161 6.36582ZM26.8842 17.1063C26.7178 17.4143 26.3469 17.5204 26.0568 17.3437C25.7668 17.167 25.6669 16.7732 25.8333 16.4652C26.2592 15.6814 26.3458 14.7857 26.1409 13.9737C25.9364 13.1623 25.4394 12.4335 24.7012 11.9809C24.4111 11.8027 24.3123 11.4077 24.4801 11.0997C24.648 10.7918 25.02 10.6868 25.31 10.865C26.339 11.4962 27.0308 12.5109 27.3154 13.6401C27.5997 14.7678 27.4783 16.0134 26.8842 17.1063ZM28.9859 18.5893C28.7484 18.8415 28.3631 18.8415 28.1255 18.5893C27.9174 18.3683 27.8916 18.0268 28.0483 17.7757C28.8088 16.3564 28.9615 14.7418 28.5917 13.2764C28.219 11.7985 27.3158 10.472 25.9724 9.64846C25.9249 9.61945 25.8825 9.58473 25.8455 9.5458C25.6061 9.2947 25.6061 8.88561 25.8437 8.63337C26.0576 8.40631 26.3907 8.38379 26.6286 8.56506C28.2377 9.57137 29.3184 11.168 29.7662 12.9429C30.2154 14.7235 30.0293 16.6865 29.1035 18.4145C29.0747 18.4774 29.0355 18.5366 28.9859 18.5893ZM5.16672 16.4652C5.33312 16.7732 5.23321 17.167 4.94317 17.3437C4.65313 17.5204 4.28223 17.4143 4.11583 17.1063C3.52174 16.0134 3.40027 14.7678 3.68455 13.6401C3.9692 12.5109 4.66104 11.4962 5.69 10.865C5.98004 10.6868 6.35202 10.7918 6.51986 11.0997C6.6877 11.4077 6.58886 11.8027 6.29883 11.9809C5.56062 12.4335 5.06357 13.1623 4.85907 13.9737C4.65421 14.7857 4.74083 15.6814 5.16672 16.4652ZM2.95174 17.7757C3.10843 18.0268 3.08256 18.3683 2.87446 18.5893C2.6369 18.8415 2.25162 18.8415 2.01406 18.5893C1.96446 18.5366 1.92529 18.4774 1.89654 18.4145C0.970724 16.6865 0.784554 14.7235 1.2338 12.9429C1.68126 11.168 2.76233 9.57137 4.37136 8.56506C4.60929 8.38379 4.94245 8.40631 5.15629 8.63337C5.39386 8.88561 5.39386 9.2947 5.15629 9.54695C5.11748 9.58473 5.07507 9.61945 5.02763 9.64846C3.68419 10.472 2.78102 11.7985 2.40832 13.2764C2.0385 14.7418 2.19125 16.3564 2.95174 17.7757ZM17.9477 24.0486H13.053C13.2183 24.4264 13.4588 24.7603 13.7546 25.0274C14.2225 25.451 14.8324 25.7071 15.5002 25.7071C16.1687 25.7071 16.7786 25.4507 17.2465 25.0274C17.5419 24.7603 17.7827 24.4264 17.9477 24.0486ZM20.2514 9.67402C19.4342 8.56811 18.2834 7.75375 16.9619 7.40572C16.8871 7.38969 16.8138 7.3584 16.7462 7.31108C16.4666 7.11455 16.3901 6.71424 16.5751 6.41734C16.6424 6.30973 16.697 6.18761 16.7344 6.05519C16.7696 5.93231 16.7883 5.79951 16.7883 5.66022C16.7883 5.28281 16.6438 4.94012 16.4113 4.69322C16.1787 4.44631 15.8556 4.2929 15.5002 4.2929C15.144 4.2929 14.8216 4.44631 14.5891 4.69322C14.3566 4.94012 14.2121 5.28243 14.2121 5.6606C14.2121 5.79112 14.2286 5.91667 14.2592 6.03344L14.266 6.05557C14.3034 6.18761 14.358 6.30973 14.4252 6.41772C14.4626 6.47878 14.4913 6.54747 14.5086 6.62227C14.5873 6.96801 14.3871 7.31642 14.0615 7.39999C12.7306 7.74535 11.5705 8.56277 10.7482 9.67555C9.9453 10.7609 9.46694 12.1328 9.46694 13.6241C9.46406 17.7093 8.59863 18.8068 7.79932 19.8203C7.30119 20.4519 6.83361 21.0446 6.74125 22.7557H24.2595C24.1671 21.0446 23.6992 20.4515 23.201 19.8203C22.3999 18.8045 21.5334 17.7062 21.5334 13.6241C21.5334 12.1461 21.0637 10.7857 20.2744 9.70341L20.2514 9.67402Z" fill="#FF5400"/>
</svg>
