<svg width="24" height="24" viewBox="0 0 24 24" fill="none" xmlns="http://www.w3.org/2000/svg">
<g clip-path="url(#clip0_1034_2337)">
<path d="M14.0967 4.80485C15.1905 5.21477 16.139 5.94905 16.8395 6.89704L16.8611 6.92853C17.6536 8.01453 18.1259 9.37657 18.1259 10.8534C18.1259 13.8666 18.7246 14.6253 19.2778 15.3269C19.8648 16.0707 20.4114 16.7636 20.4114 19.0018C20.4114 19.2991 20.1841 19.5405 19.904 19.5405H15.2022C15.0192 20.1838 14.6652 20.7483 14.1965 21.1722C13.6262 21.688 12.8879 22 12.0835 22C11.2793 22 10.5414 21.688 9.97111 21.1722C9.50239 20.748 9.14808 20.1838 8.96479 19.5405H4.26324C3.98321 19.5405 3.75589 19.2991 3.75589 19.0018C3.75589 16.7633 4.30218 16.071 4.8892 15.3269C5.44327 14.6244 6.04317 13.8634 6.04317 10.8534C6.04107 9.36353 6.52147 7.99068 7.32683 6.90022C8.02736 5.95033 8.97647 5.21604 10.0705 4.80549C10.0217 4.61691 9.99537 4.41911 9.99537 4.21717C9.99537 3.60564 10.2296 3.05071 10.6072 2.6497C10.9849 2.24868 11.5075 2 12.0835 2C12.6594 2 13.182 2.24868 13.5597 2.6497C13.9374 3.05071 14.1716 3.60532 14.1716 4.21685C14.1716 4.41879 14.1452 4.61659 14.0967 4.80485ZM21.5701 13.7553C21.4315 14.0119 21.1224 14.1003 20.8807 13.9531C20.639 13.8058 20.5557 13.4776 20.6944 13.221C21.0493 12.5678 21.1215 11.8214 20.9508 11.1447C20.7804 10.4686 20.3662 9.86122 19.751 9.48406C19.5093 9.33555 19.4269 9.00641 19.5668 8.74977C19.7067 8.49314 20.0166 8.40569 20.2583 8.5542C21.1158 9.08019 21.6923 9.92578 21.9295 10.8668C22.1664 11.8065 22.0652 12.8445 21.5701 13.7553ZM23.3216 14.991C23.1236 15.2013 22.8026 15.2013 22.6046 14.991C22.4312 14.8069 22.4096 14.5223 22.5402 14.313C23.174 13.1304 23.3013 11.7849 22.9931 10.5637C22.6825 9.33205 21.9298 8.22665 20.8103 7.54038C20.7708 7.51621 20.7354 7.48727 20.7046 7.45483C20.5051 7.24558 20.5051 6.90468 20.7031 6.69447C20.8813 6.50525 21.1589 6.48649 21.3572 6.63755C22.6981 7.47614 23.5987 8.8067 23.9718 10.2858C24.3462 11.7696 24.1911 13.4054 23.4196 14.8454C23.3956 14.8979 23.3629 14.9472 23.3216 14.991ZM3.47226 13.221C3.61093 13.4776 3.52767 13.8058 3.28597 13.9531C3.04428 14.1003 2.73519 14.0119 2.59653 13.7553C2.10145 12.8445 2.00022 11.8065 2.23713 10.8668C2.47433 9.92578 3.05087 9.08019 3.90834 8.5542C4.15003 8.40569 4.46001 8.49314 4.59988 8.74977C4.73975 9.00641 4.65738 9.33555 4.41569 9.48406C3.80052 9.86122 3.38631 10.4686 3.21589 11.1447C3.04518 11.8214 3.11736 12.5678 3.47226 13.221ZM1.62645 14.313C1.75703 14.5223 1.73546 14.8069 1.56205 14.991C1.36408 15.2013 1.04302 15.2013 0.845051 14.991C0.80372 14.9472 0.771075 14.8979 0.747115 14.8454C-0.024397 13.4054 -0.179538 11.7696 0.194837 10.2858C0.567714 8.8067 1.46861 7.47614 2.80947 6.63755C3.00774 6.48649 3.28538 6.50525 3.46358 6.69447C3.66155 6.90468 3.66155 7.24558 3.46358 7.45579C3.43123 7.48727 3.39589 7.51621 3.35636 7.54038C2.23683 8.22665 1.48418 9.33205 1.1736 10.5637C0.865417 11.7849 0.992704 13.1304 1.62645 14.313ZM14.1231 19.5405H10.0442C10.182 19.8553 10.3823 20.1336 10.6288 20.3562C11.0188 20.7092 11.527 20.9226 12.0835 20.9226C12.6406 20.9226 13.1488 20.7089 13.5388 20.3562C13.7849 20.1336 13.9856 19.8553 14.1231 19.5405ZM16.0429 7.56169C15.3618 6.64009 14.4028 5.96146 13.3015 5.67143C13.2393 5.65808 13.1782 5.632 13.1218 5.59257C12.8888 5.42879 12.825 5.0952 12.9793 4.84778C13.0353 4.75811 13.0808 4.65634 13.112 4.54599C13.1413 4.44359 13.1569 4.33293 13.1569 4.21685C13.1569 3.90234 13.0365 3.61677 12.8427 3.41101C12.6489 3.20526 12.3797 3.07742 12.0835 3.07742C11.7867 3.07742 11.518 3.20526 11.3243 3.41101C11.1305 3.61677 11.0101 3.90202 11.0101 4.21717C11.0101 4.32593 11.0239 4.43055 11.0493 4.52787L11.055 4.54631C11.0861 4.65634 11.1317 4.75811 11.1877 4.8481C11.2188 4.89898 11.2428 4.95623 11.2572 5.01856C11.3228 5.30667 11.1559 5.59702 10.8846 5.66666C9.77554 5.95446 8.80875 6.63564 8.1235 7.56296C7.45441 8.46738 7.05578 9.61063 7.05578 10.8534C7.05338 14.2577 6.33219 15.1723 5.6661 16.017C5.25099 16.5433 4.86134 17.0371 4.78437 18.4631H19.3829C19.3059 17.0371 18.916 16.5429 18.5009 16.017C17.8333 15.1704 17.1112 14.2552 17.1112 10.8534C17.1112 9.62176 16.7197 8.48805 16.062 7.58617L16.0429 7.56169Z" fill="#212529"/>
</g>
<defs>
<clipPath id="clip0_1034_2337">
<rect width="24" height="24" fill="white"/>
</clipPath>
</defs>
</svg>
