<svg width="24" height="24" viewBox="0 0 24 24" fill="none" xmlns="http://www.w3.org/2000/svg">
<path d="M23.9888 16.4705C23.9788 16.4054 23.9638 16.3405 23.9387 16.2805C23.9337 16.2705 23.9337 16.2605 23.9288 16.2505L20.4289 10.2508C20.3389 10.0958 20.1739 10.0008 19.999 10.0008H17.5141C17.2641 10.0008 17.0391 10.1808 17.0041 10.4258C16.9591 10.7358 17.1991 11.0008 17.4991 11.0008H19.714L22.6288 16.0006H16.4942C16.2192 16.0006 15.9942 16.2255 15.9942 16.5005V17.5005C15.9942 18.3305 15.3242 19.0004 14.4943 19.0004H9.99449C9.16452 19.0004 8.49457 18.3305 8.49457 17.5005V16.5005C8.49457 16.2255 8.26958 16.0006 7.99458 16.0006H1.36493L4.27979 11.0007H7.47462C7.72459 11.0007 7.94958 10.8207 7.98459 10.5757C8.02959 10.2658 7.78961 10.0007 7.48962 10.0007H3.99481C3.81481 10.0007 3.64982 10.0957 3.56484 10.2507L0.0650122 16.2504C0.0599968 16.2604 0.0599968 16.2704 0.0550284 16.2804C0.0400291 16.3104 0.0300453 16.3404 0.0250299 16.3754C0.0150461 16.4054 0.0100307 16.4404 0.00501536 16.4754C0.00501536 16.4854 0 16.4954 0 16.5054V23.5001C0 23.7751 0.224988 24.0001 0.499989 24.0001H23.4988C23.7738 24.0001 23.9988 23.7751 23.9988 23.5001V16.5005C23.9938 16.4904 23.9888 16.4804 23.9888 16.4705ZM22.9938 23.0001H0.994963V17.0004H7.49464V17.5004C7.49464 18.8803 8.61456 20.0002 9.99449 20.0002H14.4943C15.8742 20.0002 16.9941 18.8803 16.9941 17.5004V17.0004H22.9938V23.0001Z" fill="#FF5400" stroke="#FF5400" stroke-width="0.5"/>
<path d="M8.84936 4.85098L11.9942 1.70616V11.4856C11.9942 11.7356 12.1742 11.9606 12.4192 11.9956C12.7292 12.0406 12.9942 11.8006 12.9942 11.5006V1.70616L16.139 4.85098C16.339 5.04095 16.654 5.03598 16.844 4.84099C17.029 4.64601 17.029 4.34101 16.844 4.14602L12.8442 0.146242C12.6492 -0.0487474 12.3342 -0.0487474 12.1392 0.146242L8.13942 4.14602C7.94945 4.34602 7.95442 4.661 8.14941 4.85098C8.3444 5.03598 8.65437 5.03598 8.84936 4.85098Z" fill="#FF5400" stroke="#FF5400" stroke-width="0.5"/>
</svg>
