<svg width="24" height="24" viewBox="0 0 24 24" fill="none" xmlns="http://www.w3.org/2000/svg">
<g clip-path="url(#clip0_1034_2350)">
<path d="M5.03392 4.01144C5.37799 3.66235 5.59918 3.1969 5.59918 2.6849C5.59918 1.63762 4.71443 0.799805 3.63308 0.799805C2.55173 0.799805 1.64241 1.63762 1.64241 2.6849C1.64241 3.1969 1.86359 3.66235 2.20766 4.01144C1.5441 4.29071 1.028 4.87253 0.929697 5.59399L0.806816 6.38526C0.78224 6.59471 0.831392 6.80417 0.97885 6.9438C1.12631 7.10671 1.32292 7.1998 1.5441 7.1998H5.64833C5.86952 7.1998 6.06613 7.10671 6.21358 6.9438C6.36104 6.7809 6.43477 6.57144 6.38562 6.38526L6.26274 5.59399C6.21358 4.87253 5.69748 4.26744 5.03392 4.01144ZM3.63308 1.52126C4.29664 1.52126 4.83731 2.03326 4.83731 2.66162C4.83731 3.28999 4.29664 3.80199 3.63308 3.80199C2.96952 3.80199 2.40427 3.31326 2.40427 2.6849C2.40427 2.05653 2.94495 1.52126 3.63308 1.52126ZM1.56868 6.47835L1.69156 5.68708C1.78986 5.03544 2.37969 4.56999 3.06783 4.56999H4.19833C4.88647 4.56999 5.4763 5.05871 5.5746 5.68708L5.69748 6.47835H1.56868Z" fill="#212529"/>
<path d="M22.1992 2.3999H8.19922C7.6516 2.3999 7.19922 2.83419 7.19922 3.3599V5.4399C7.19922 5.96562 7.6516 6.3999 8.19922 6.3999H22.1992C22.7468 6.3999 23.1992 5.96562 23.1992 5.4399V3.3599C23.1992 2.83419 22.7468 2.3999 22.1992 2.3999ZM22.4611 5.4399C22.4611 5.57704 22.3421 5.66847 22.223 5.66847H8.19922C8.05636 5.66847 7.96112 5.55419 7.96112 5.4399V3.3599C7.96112 3.22276 8.08017 3.13133 8.19922 3.13133H22.1992C22.3421 3.13133 22.4373 3.24562 22.4373 3.3599V5.4399H22.4611Z" fill="#212529"/>
<path d="M5.0585 11.6131C5.40257 11.2204 5.62375 10.6967 5.62375 10.1207C5.62375 8.94254 4.73901 8 3.63308 8C2.52715 8 1.64241 8.94254 1.64241 10.1207C1.64241 10.6967 1.86359 11.2204 2.20766 11.6131C1.5441 11.9273 1.028 12.5818 0.929697 13.3935L0.806816 14.2836C0.78224 14.5193 0.831392 14.7549 0.978849 14.912C1.12631 15.0953 1.32292 15.2 1.5441 15.2H5.64833C5.86952 15.2 6.06613 15.0953 6.21358 14.912C6.36104 14.7287 6.43477 14.4931 6.38562 14.2836L6.26274 13.3935C6.23816 12.5818 5.72206 11.9273 5.0585 11.6131ZM3.65766 8.83782C4.32121 8.83782 4.86189 9.41382 4.86189 10.1207C4.86189 10.8276 4.32121 11.4036 3.65766 11.4036C2.9941 11.4036 2.42885 10.8276 2.42885 10.1207C2.42885 9.41382 2.96952 8.83782 3.65766 8.83782ZM1.59325 14.4145L1.71614 13.5244C1.81444 12.7913 2.40427 12.2676 3.0924 12.2676H4.22291C4.91104 12.2676 5.50087 12.8175 5.59918 13.5244L5.72206 14.4145H1.59325Z" fill="#212529"/>
<path d="M18.9553 9.6001H8.2431C7.67145 9.6001 7.19922 10.1212 7.19922 10.7521V13.2481C7.19922 13.879 7.67145 14.4001 8.2431 14.4001H18.9553C19.527 14.4001 19.9992 13.879 19.9992 13.2481V10.7521C19.9992 10.0938 19.527 9.6001 18.9553 9.6001ZM19.2287 13.2207C19.2287 13.3852 19.1045 13.495 18.9802 13.495H8.2431C8.09398 13.495 7.99456 13.3578 7.99456 13.2207V10.7247C7.99456 10.5601 8.11883 10.4504 8.2431 10.4504H18.9553C19.1045 10.4504 19.2039 10.5875 19.2039 10.7247V13.2207H19.2287Z" fill="#212529"/>
<path d="M5.02146 19.9998C5.36253 19.652 5.58179 19.1882 5.58179 18.6781C5.58179 17.6346 4.70474 16.7998 3.60844 16.7998C2.51213 16.7998 1.63508 17.6346 1.63508 18.6781C1.63508 19.1882 1.85435 19.652 2.19542 19.9998C1.53763 20.2781 1.02602 20.8578 0.928575 21.5766L0.806764 22.365C0.782401 22.5737 0.831126 22.7824 0.9773 22.9215C1.14784 23.1071 1.3671 23.1998 1.58636 23.1998H5.65488C5.87414 23.1998 6.06904 23.1071 6.21521 22.9447C6.36139 22.7824 6.43447 22.5737 6.38575 22.3882L6.2883 21.5766C6.19085 20.8578 5.67924 20.2781 5.02146 19.9998ZM3.6328 17.5418C4.29058 17.5418 4.82656 18.052 4.82656 18.6781C4.82656 19.3042 4.29058 19.8143 3.6328 19.8143C2.97502 19.8143 2.41468 19.3273 2.41468 18.7013C2.41468 18.052 2.95065 17.5418 3.6328 17.5418ZM1.58636 22.481L1.70817 21.6926C1.80562 21.0433 2.39032 20.5795 3.07246 20.5795H4.19313C4.87528 20.5795 5.45998 21.0665 5.55743 21.6926L5.67924 22.481H1.58636Z" fill="#212529"/>
<path d="M14.9668 17.6001H8.23162C7.66626 17.6001 7.19922 18.0344 7.19922 18.5601V20.6401C7.19922 21.1658 7.66626 21.6001 8.23162 21.6001H14.9668C15.5322 21.6001 15.9992 21.1658 15.9992 20.6401V18.5601C15.9992 18.0344 15.5322 17.6001 14.9668 17.6001ZM15.2372 20.6401C15.2372 20.7772 15.1143 20.8687 14.9914 20.8687H8.23162C8.08414 20.8687 7.98581 20.7544 7.98581 20.6401V18.5601C7.98581 18.423 8.10872 18.3315 8.23162 18.3315H14.9668C15.1143 18.3315 15.2126 18.4458 15.2126 18.5601V20.6401H15.2372Z" fill="#212529"/>
</g>
<defs>
<clipPath id="clip0_1034_2350">
<rect width="24" height="24" fill="white"/>
</clipPath>
</defs>
</svg>
