<svg width="24" height="24" viewBox="0 0 24 24" fill="none" xmlns="http://www.w3.org/2000/svg">
<path d="M15.5139 6.52882e-07C15.5088 0.000441637 15.5037 0.000963009 15.4986 0.00156458H2.91398C1.86292 0.00156458 1 0.786969 1 1.74876V22.2528C1 23.2146 1.86292 24 2.91398 24H20.512C21.563 24 22.4286 23.2151 22.4286 22.2528V6.30913C22.4275 6.30536 22.4264 6.30161 22.4252 6.29787C22.4238 6.25057 22.4137 6.20383 22.3951 6.15968C22.393 6.15453 22.3907 6.14942 22.3883 6.14435C22.3659 6.09646 22.3339 6.05286 22.2939 6.01586L15.8331 0.121305C15.7911 0.08279 15.7412 0.0522573 15.6862 0.031458C15.6313 0.0106586 15.5734 -9.65379e-05 15.5139 6.52882e-07ZM2.91347 0.829955H15.0641V4.97408C15.0641 5.93634 15.927 6.72128 16.9781 6.72128H21.5249V22.2529C21.5249 22.7683 21.0799 23.1725 20.5114 23.1725H2.91347C2.34503 23.1725 1.90356 22.7687 1.90356 22.2529V1.74881C1.90356 1.23294 2.34503 0.829955 2.91347 0.829955ZM15.9673 1.41262L20.3006 5.36441L20.881 5.89374H16.9781C16.4097 5.89374 15.9673 5.48949 15.9673 4.97408V1.41262ZM15.4945 10.5421C15.4352 10.5419 15.3763 10.5525 15.3214 10.5731C15.2665 10.5938 15.2165 10.6241 15.1744 10.6625C15.1323 10.7008 15.0989 10.7464 15.076 10.7966C15.0531 10.8469 15.0413 10.9007 15.0412 10.9551V20.3101C15.0413 20.3645 15.0531 20.4184 15.076 20.4686C15.0989 20.5188 15.1323 20.5644 15.1744 20.6027C15.2165 20.6411 15.2665 20.6714 15.3214 20.6921C15.3763 20.7127 15.4352 20.7233 15.4945 20.7231H18.5781C18.6974 20.7226 18.8116 20.6789 18.8959 20.6016C18.9802 20.5242 19.0277 20.4194 19.0279 20.3101V10.9551C19.0277 10.8458 18.9802 10.741 18.8959 10.6636C18.8116 10.5863 18.6974 10.5426 18.5781 10.5421H15.4945ZM15.9444 11.3705H18.1247V19.8947H15.9444V11.3705ZM10.1707 12.6069C10.0514 12.6074 9.93711 12.651 9.85283 12.7284C9.76855 12.8058 9.72111 12.9106 9.72087 13.0199V20.3101C9.72111 20.4194 9.76855 20.5242 9.85283 20.6016C9.93711 20.6789 10.0514 20.7226 10.1707 20.7231H13.2542C13.3136 20.7233 13.3724 20.7127 13.4274 20.6921C13.4823 20.6714 13.5323 20.6411 13.5744 20.6027C13.6165 20.5644 13.6499 20.5188 13.6728 20.4686C13.6956 20.4184 13.7075 20.3645 13.7076 20.3101V13.0199C13.7075 12.9655 13.6956 12.9116 13.6728 12.8614C13.6499 12.8112 13.6165 12.7656 13.5744 12.7273C13.5323 12.6889 13.4823 12.6586 13.4274 12.6379C13.3724 12.6173 13.3136 12.6067 13.2542 12.6069H10.1707ZM10.6241 13.4353H12.8044V19.8947H10.6241V13.4353ZM4.85038 15.8508C4.73062 15.8512 4.61594 15.8952 4.53159 15.9731C4.44723 16.051 4.4001 16.1564 4.40056 16.2662V20.3101C4.4008 20.4194 4.44824 20.5242 4.53252 20.6016C4.6168 20.6789 4.73107 20.7226 4.85038 20.7231H7.93391C7.99329 20.7233 8.05212 20.7127 8.10706 20.6921C8.16199 20.6714 8.21194 20.6411 8.25404 20.6027C8.29615 20.5644 8.32959 20.5188 8.35245 20.4686C8.3753 20.4183 8.38713 20.3645 8.38725 20.3101V16.2662C8.38748 16.2116 8.37591 16.1575 8.35321 16.107C8.33051 16.0565 8.29712 16.0106 8.25498 15.972C8.21284 15.9334 8.16277 15.9028 8.10767 15.882C8.05256 15.8612 7.99351 15.8506 7.93391 15.8508H4.85038ZM5.30372 16.6791H7.48407V19.8947H5.30372V16.6791Z" fill="#212529"/>
</svg>
