<svg width="24" height="24" viewBox="0 0 24 24" fill="none" xmlns="http://www.w3.org/2000/svg">
<path d="M5.82938 1.6001C5.68674 1.6001 5.54995 1.65694 5.44909 1.75813C5.34823 1.85932 5.29156 1.99656 5.29156 2.13966V3.19181H3.48987C2.77668 3.19181 2.0927 3.47604 1.5884 3.98198C1.0841 4.48792 0.800781 5.17412 0.800781 5.88963V15.7097C0.800781 16.4252 1.0841 17.1114 1.5884 17.6173C2.0927 18.1233 2.77668 18.4075 3.48987 18.4075H10.6966C11.0845 19.3304 11.6787 20.1515 12.4335 20.8071C13.1882 21.4627 14.0832 21.9353 15.0492 22.1883C16.0151 22.4414 17.0262 22.468 18.004 22.2663C18.9819 22.0645 19.9004 21.6397 20.6885 21.0248C21.4765 20.4099 22.113 19.6214 22.5486 18.7201C22.9842 17.8189 23.2073 16.8293 23.2006 15.8277C23.194 14.8261 22.9577 13.8396 22.5101 12.9443C22.0625 12.049 21.4156 11.269 20.6194 10.6648V5.9166C20.6194 5.56232 20.5498 5.21151 20.4147 4.88419C20.2796 4.55688 20.0815 4.25948 19.8318 4.00896C19.5821 3.75844 19.2856 3.55973 18.9594 3.42415C18.6331 3.28857 18.2834 3.21879 17.9303 3.21879H16.1286V2.13966C16.1286 1.99656 16.0719 1.85932 15.9711 1.75813C15.8702 1.65694 15.7334 1.6001 15.5908 1.6001C15.4481 1.6001 15.3114 1.65694 15.2105 1.75813C15.1096 1.85932 15.053 1.99656 15.053 2.13966V3.19181H6.3672V2.13966C6.3672 1.99656 6.31054 1.85932 6.20968 1.75813C6.10882 1.65694 5.97202 1.6001 5.82938 1.6001ZM22.1522 15.8715C22.1522 16.9482 21.8342 18.0008 21.2386 18.8964C20.6429 19.7919 19.7961 20.4904 18.8051 20.9037C17.8141 21.3169 16.7233 21.4264 15.6703 21.2183C14.6174 21.0102 13.6495 20.4939 12.8887 19.7344C12.128 18.975 11.6085 18.0065 11.3959 16.9512C11.1833 15.8958 11.287 14.8009 11.694 13.8047C12.1011 12.8085 12.7931 11.9555 13.6828 11.3535C14.5726 10.7514 15.6201 10.4273 16.6933 10.422C18.1364 10.4219 19.5209 10.9952 20.5438 12.0165C21.5668 13.0377 22.1451 14.4238 22.1522 15.8715ZM15.0799 4.27094V5.0533C15.0799 5.1964 15.1365 5.33364 15.2374 5.43483C15.3382 5.53602 15.475 5.59287 15.6177 5.59287C15.7603 5.59287 15.8971 5.53602 15.998 5.43483C16.0988 5.33364 16.1555 5.1964 16.1555 5.0533V4.29791H17.9303C18.3582 4.29791 18.7686 4.46845 19.0712 4.77202C19.3738 5.07558 19.5437 5.4873 19.5437 5.9166V9.99031C18.4388 9.44873 17.2035 9.23233 15.981 9.36619C14.7585 9.50005 13.5988 9.97869 12.6364 10.7467C11.6739 11.5146 10.948 12.5405 10.5428 13.7053C10.1377 14.8702 10.0698 16.1264 10.3471 17.3284H3.48987C3.06196 17.3284 2.65157 17.1578 2.34899 16.8543C2.04641 16.5507 1.87642 16.139 1.87642 15.7097V5.9166C1.87642 5.4873 2.04641 5.07558 2.34899 4.77202C2.65157 4.46845 3.06196 4.29791 3.48987 4.29791H5.29156V5.08028C5.29156 5.22338 5.34823 5.36062 5.44909 5.46181C5.54995 5.563 5.68674 5.61984 5.82938 5.61984C5.97202 5.61984 6.10882 5.563 6.20968 5.46181C6.31054 5.36062 6.3672 5.22338 6.3672 5.08028V4.29791L15.0799 4.27094Z" fill="#212529"/>
<path d="M18.7188 16.4219H16.9624V13.3888C16.9624 13.2326 16.9117 13.0828 16.8215 12.9723C16.7312 12.8619 16.6088 12.7998 16.4812 12.7998C16.3536 12.7998 16.2312 12.8619 16.1409 12.9723C16.0507 13.0828 16 13.2326 16 13.3888V17.0108C16 17.167 16.0507 17.3169 16.1409 17.4273C16.2312 17.5378 16.3536 17.5998 16.4812 17.5998H18.7188C18.8464 17.5998 18.9688 17.5378 19.0591 17.4273C19.1493 17.3169 19.2 17.167 19.2 17.0108C19.2 16.8546 19.1493 16.7048 19.0591 16.5944C18.9688 16.4839 18.8464 16.4219 18.7188 16.4219Z" fill="#212529"/>
</svg>
