<svg width="24" height="24" viewBox="0 0 24 24" fill="none" xmlns="http://www.w3.org/2000/svg">
<path d="M1.76566 1.6786C1.8777 1.58355 2.01518 1.52349 2.16105 1.50589C2.30691 1.48829 2.45474 1.51392 2.58616 1.5796L22.0862 11.3296C22.2106 11.392 22.3152 11.4877 22.3883 11.6061C22.4614 11.7245 22.5001 11.8609 22.5001 12.0001C22.5001 12.1393 22.4614 12.2757 22.3883 12.3941C22.3152 12.5125 22.2106 12.6082 22.0862 12.6706L2.58616 22.4206C2.45483 22.4865 2.30704 22.5123 2.16115 22.4949C2.01526 22.4775 1.8777 22.4176 1.76554 22.3227C1.65338 22.2278 1.57157 22.102 1.53026 21.961C1.48895 21.82 1.48996 21.67 1.53316 21.5296L4.46566 12.0001L1.53316 2.4706C1.4902 2.33032 1.48933 2.18051 1.53066 2.03974C1.57199 1.89897 1.65369 1.7734 1.76566 1.6786ZM5.80366 12.7501L3.48316 20.2951L20.0732 12.0001L3.48316 3.7051L5.80366 11.2501H14.2502C14.4491 11.2501 14.6398 11.3291 14.7805 11.4698C14.9211 11.6104 15.0002 11.8012 15.0002 12.0001C15.0002 12.199 14.9211 12.3898 14.7805 12.5304C14.6398 12.6711 14.4491 12.7501 14.2502 12.7501H5.80366Z" fill="#FF5400"/>
</svg>
