<svg width="24" height="22" viewBox="0 0 24 22" fill="none" xmlns="http://www.w3.org/2000/svg">
<path d="M0.707447 8.52969L7.5018 15.324V12.9695L3.41543 8.88314L3.06188 8.52959L3.41543 8.17604L7.5018 4.08967V1.73932L0.707447 8.52969ZM19.8479 13.4953C21.2097 14.5856 22.3999 16.1985 23.4725 18.5581C23.4014 16.7315 23.1632 14.6218 22.3847 12.6418C21.7864 11.1201 20.8724 9.68728 19.4746 8.52684C18.0776 7.36697 16.1731 6.45908 13.5631 6.02275L13.1456 5.95294V5.52959V1.73982L6.35578 8.52959L13.1502 15.324V11.9093V11.3733L13.6849 11.4105C15.9893 11.5708 18.0389 12.047 19.8479 13.4953Z" stroke="#FF5400"/>
</svg>
