<svg width="31" height="30" viewBox="0 0 31 30" fill="none" xmlns="http://www.w3.org/2000/svg">
<g clip-path="url(#clip0_280_2945)">
<path d="M12.0082 15.5C12.2071 15.5 12.3979 15.4202 12.5385 15.2781C12.6792 15.1361 12.7582 14.9434 12.7582 14.7424C12.7582 14.5415 12.6792 14.3488 12.5385 14.2068C12.3979 14.0647 12.2071 13.9849 12.0082 13.9849C11.0905 13.9849 10.1935 14.2597 9.43041 14.7745C8.66733 15.2893 8.07248 16.0211 7.72104 16.8774C7.3696 17.7336 7.27734 18.6759 7.45593 19.5851C7.63452 20.4943 8.07593 21.3296 8.72439 21.9854C9.37284 22.6413 10.1992 23.0882 11.0991 23.2698C11.999 23.4514 12.9319 23.3594 13.7801 23.0055C14.6282 22.6516 15.3534 22.0517 15.8641 21.2816C16.3748 20.5115 16.648 19.6057 16.6492 18.6788C16.6492 18.4779 16.5702 18.2852 16.4295 18.1431C16.2889 18.001 16.0981 17.9212 15.8992 17.9212C15.7003 17.9212 15.5095 18.001 15.3689 18.1431C15.2282 18.2852 15.1492 18.4779 15.1492 18.6788C15.1492 19.3078 14.9645 19.9226 14.6184 20.4455C14.2723 20.9684 13.7805 21.3758 13.2051 21.6162C12.6297 21.8566 11.9966 21.9192 11.386 21.7961C10.7754 21.6729 10.2147 21.3696 9.7748 20.9244C9.33492 20.4792 9.03567 19.9123 8.91492 19.2952C8.79418 18.6782 8.85735 18.0389 9.09646 17.4581C9.33557 16.8774 9.73986 16.3813 10.2582 16.0328C10.7765 15.6842 11.3855 15.4988 12.0082 15.5Z" fill="#FF5400"/>
<path d="M2.42081 21.2908L3.53381 21.4878C3.67395 21.9196 3.84645 22.34 4.04981 22.7454L3.40181 23.6787C3.13789 24.058 3.01513 24.5193 3.0552 24.9812C3.09527 25.4431 3.2956 25.8758 3.62081 26.2029L4.55981 27.1514C4.88371 27.4799 5.31209 27.6823 5.76934 27.7227C6.22658 27.7632 6.68327 27.6392 7.05881 27.3726L7.98281 26.7181C8.38415 26.9234 8.80035 27.0976 9.22781 27.2393L9.42281 28.3636C9.50011 28.8219 9.73569 29.2378 10.0877 29.5373C10.4398 29.8369 10.8855 30.0008 11.3458 29.9999H12.6748C13.1356 30.0015 13.5821 29.8379 13.9347 29.5383C14.2874 29.2387 14.5234 28.8224 14.6008 28.3636L14.7958 27.2393C15.2233 27.0977 15.6395 26.9235 16.0408 26.7181L16.9648 27.3726C17.3403 27.6392 17.797 27.7632 18.2543 27.7227C18.7115 27.6823 19.1399 27.4799 19.4638 27.1514L20.4028 26.2029C20.728 25.8758 20.9283 25.4431 20.9684 24.9812C21.0085 24.5193 20.8857 24.058 20.6218 23.6787L19.9738 22.7454C20.1771 22.34 20.3496 21.9196 20.4898 21.4878L21.6028 21.2908C21.7029 21.2778 21.7994 21.2443 21.8863 21.1926C21.9733 21.1408 22.049 21.0718 22.1088 20.9896C22.1686 20.9075 22.2113 20.814 22.2344 20.7147C22.2574 20.6155 22.2603 20.5125 22.2429 20.4121C22.2254 20.3116 22.188 20.2158 22.1329 20.1304C22.0777 20.045 22.006 19.9718 21.9221 19.9151C21.8382 19.8585 21.7437 19.8196 21.6445 19.8008C21.5453 19.7821 21.4433 19.7838 21.3448 19.806L19.7788 20.0848C19.6376 20.1081 19.506 20.1719 19.3996 20.2686C19.2932 20.3653 19.2166 20.4908 19.1788 20.6302C19.0122 21.258 18.7651 21.8611 18.4438 22.4242C18.373 22.5485 18.3389 22.6907 18.3452 22.834C18.3516 22.9773 18.3983 23.1158 18.4798 23.2333L19.4008 24.5454C19.466 24.6356 19.4968 24.7467 19.4874 24.858C19.4781 24.9694 19.4292 25.0736 19.3498 25.1514L18.4108 26.0999C18.3337 26.1801 18.2306 26.2295 18.1203 26.239C18.0101 26.2484 17.9002 26.2173 17.8108 26.1514L16.5088 25.2423C16.3925 25.16 16.2554 25.1128 16.1135 25.1064C15.9717 25.1 15.8309 25.1345 15.7078 25.206C15.1523 25.5301 14.5573 25.7797 13.9378 25.9484C13.7998 25.9866 13.6755 26.064 13.5798 26.1714C13.4841 26.2789 13.4209 26.4118 13.3978 26.5545L13.1218 28.1363C13.0963 28.2369 13.038 28.3259 12.9565 28.3891C12.8749 28.4523 12.7746 28.486 12.6718 28.4848H11.3458C11.2379 28.4851 11.1334 28.4469 11.0505 28.3771C10.9677 28.3073 10.9118 28.2102 10.8928 28.1029L10.6168 26.5211C10.5937 26.3785 10.5306 26.2455 10.4348 26.1381C10.3391 26.0306 10.2148 25.9532 10.0768 25.9151C9.45563 25.7486 8.8586 25.5011 8.30081 25.1787C8.17768 25.1072 8.03693 25.0727 7.89507 25.0791C7.7532 25.0856 7.61609 25.1327 7.49981 25.2151L6.19781 26.1242C6.10844 26.1901 5.99852 26.2211 5.88827 26.2117C5.77803 26.2022 5.67487 26.1528 5.59781 26.0726L4.67381 25.1514C4.59441 25.0736 4.54554 24.9694 4.53616 24.858C4.52679 24.7467 4.55756 24.6356 4.62281 24.5454L5.52281 23.2302C5.60605 23.1146 5.65504 22.9774 5.66407 22.8347C5.6731 22.692 5.6418 22.5496 5.57381 22.4242C5.25279 21.8631 5.0057 21.262 4.83881 20.6363C4.80102 20.4969 4.72439 20.3713 4.61803 20.2746C4.51166 20.1779 4.38003 20.1141 4.23881 20.0908L2.67281 19.812C2.56668 19.7914 2.47119 19.7335 2.40314 19.6487C2.33509 19.5639 2.29885 19.4576 2.30081 19.3484V18.009C2.30052 17.9 2.33826 17.7944 2.40738 17.7108C2.47651 17.6271 2.57261 17.5707 2.67881 17.5514L4.24481 17.2726C4.38603 17.2493 4.51766 17.1855 4.62403 17.0888C4.73039 16.9921 4.80702 16.8666 4.84481 16.7272C5.01149 16.1004 5.25858 15.4983 5.57981 14.9363C5.65056 14.8119 5.68476 14.6697 5.67838 14.5264C5.67201 14.3831 5.62532 14.2446 5.54381 14.1272L4.64381 12.812C4.57856 12.7218 4.54779 12.6107 4.55716 12.4994C4.56654 12.388 4.61541 12.2838 4.69481 12.206L5.60081 11.2696C5.6771 11.1885 5.77987 11.138 5.89014 11.1274C6.00041 11.1168 6.11075 11.1469 6.20081 11.212L7.50281 12.1211C7.61909 12.2035 7.7562 12.2506 7.89807 12.2571C8.03993 12.2635 8.18068 12.229 8.30381 12.1575C8.86029 11.8331 9.45633 11.5835 10.0768 11.4151C10.2148 11.3769 10.3391 11.2995 10.4348 11.1921C10.5306 11.0846 10.5937 10.9517 10.6168 10.809L10.8928 9.22719C10.9174 9.03459 10.8676 8.8398 10.7537 8.68337C10.6397 8.52694 10.4705 8.42091 10.2811 8.38734C10.0917 8.35377 9.89683 8.39524 9.73697 8.50313C9.5771 8.61102 9.46458 8.77702 9.42281 8.96659L9.22781 10.0908C8.80033 10.2324 8.38413 10.4067 7.98281 10.612L7.05881 9.9575C6.68327 9.69091 6.22658 9.56692 5.76934 9.60739C5.31209 9.64787 4.88371 9.85021 4.55981 10.1787L3.62081 11.1272C3.29605 11.4547 3.09629 11.8876 3.05677 12.3495C3.01724 12.8113 3.14051 13.2725 3.40481 13.6514L4.05281 14.5848C3.84947 14.9901 3.67698 15.4105 3.53681 15.8423L2.42081 16.0605C1.96601 16.1388 1.55351 16.3776 1.25682 16.7345C0.960123 17.0913 0.798518 17.543 0.800805 18.009V19.3514C0.80065 19.8159 0.963223 20.2654 1.25973 20.6203C1.55624 20.9753 1.96754 21.2128 2.42081 21.2908Z" fill="#FF5400"/>
<path d="M29.1026 8.8242L28.2626 8.43026C28.1842 7.78166 28.0165 7.14727 27.7646 6.54541L28.2956 5.77875C28.5504 5.41219 28.669 4.9666 28.6306 4.52041C28.5922 4.07421 28.3992 3.65599 28.0856 3.33935L27.1856 2.43026C26.8722 2.1135 26.4581 1.91857 26.0164 1.87977C25.5747 1.84097 25.1335 1.96079 24.7706 2.21814L24.0206 2.76663C23.4248 2.51217 22.7967 2.34287 22.1546 2.2636L21.7646 1.41511C21.5777 1.00835 21.2546 0.681319 20.8523 0.49171C20.45 0.302102 19.9943 0.262096 19.5656 0.378749L18.3656 0.706022C17.9325 0.819912 17.5536 1.08585 17.2969 1.45621C17.0402 1.82656 16.9224 2.27714 16.9646 2.72723L17.0456 3.63632C16.5306 4.03102 16.0714 4.4949 15.6806 5.01511L14.7596 4.93329C14.3181 4.89379 13.8769 5.01282 13.5136 5.26944C13.1504 5.52606 12.8884 5.90383 12.7736 6.33632L12.4496 7.54845C12.3341 7.98145 12.3737 8.44173 12.5615 8.84812C12.7492 9.2545 13.0729 9.58087 13.4756 9.76966L14.3156 10.1636C14.3941 10.8122 14.5618 11.4466 14.8136 12.0484L14.2826 12.8151C14.0278 13.1817 13.9092 13.6273 13.9476 14.0735C13.986 14.5197 14.179 14.9379 14.4926 15.2545L15.3926 16.1636C15.7061 16.4804 16.1201 16.6753 16.5619 16.7141C17.0036 16.7529 17.4447 16.6331 17.8076 16.3757L18.5666 15.8394C19.1557 16.0994 19.7776 16.2759 20.4146 16.3636L20.8046 17.2121C20.993 17.6165 21.3162 17.9411 21.7177 18.129C22.1193 18.3168 22.5734 18.3559 23.0006 18.2394L24.2006 17.9121C24.6293 17.7968 25.004 17.5324 25.2587 17.1654C25.5133 16.7984 25.6316 16.3524 25.5926 15.906L25.5116 14.9757C25.7688 14.7785 26.0123 14.5639 26.2406 14.3333C26.4774 14.1016 26.698 13.8535 26.9006 13.5909L27.8216 13.6727C28.2632 13.7122 28.7044 13.5932 29.0676 13.3365C29.4309 13.0799 29.6929 12.7021 29.8076 12.2697L30.1316 11.0575C30.2501 10.6225 30.2116 10.1591 30.0231 9.75001C29.8347 9.34094 29.5084 9.01282 29.1026 8.8242ZM28.6856 10.6424L28.3616 11.8545C28.3397 11.9466 28.286 12.0277 28.2101 12.0833C28.1342 12.1389 28.0411 12.1652 27.9476 12.1575L26.6006 12.0515C26.4668 12.04 26.3323 12.0651 26.2114 12.1243C26.0905 12.1835 25.9876 12.2745 25.9136 12.3878C25.4995 13.0194 24.9639 13.5604 24.3386 13.9787C24.2265 14.0535 24.1363 14.1574 24.0777 14.2795C24.0191 14.4016 23.9942 14.5375 24.0056 14.6727L24.1256 16.0333C24.1332 16.1277 24.1072 16.2217 24.0522 16.2984C23.9971 16.3751 23.9168 16.4294 23.8256 16.4515L22.6256 16.7787C22.5363 16.8032 22.4413 16.7951 22.3573 16.7557C22.2733 16.7164 22.2058 16.6483 22.1666 16.5636L21.5936 15.3212C21.5366 15.198 21.4476 15.0928 21.3362 15.0165C21.2248 14.9402 21.095 14.8958 20.9606 14.8878C20.209 14.8463 19.4738 14.6493 18.8006 14.3091C18.6802 14.2485 18.5459 14.2218 18.4118 14.232C18.2777 14.2421 18.1487 14.2886 18.0386 14.3666L16.9376 15.1515C16.8618 15.2051 16.7696 15.2299 16.6774 15.2216C16.5852 15.2133 16.4989 15.1723 16.4336 15.106L15.5336 14.1969C15.4728 14.1303 15.4364 14.0447 15.4304 13.9543C15.4244 13.8639 15.4492 13.7742 15.5006 13.7L16.2776 12.5787C16.3532 12.4685 16.3983 12.3399 16.4083 12.2063C16.4183 12.0726 16.3929 11.9386 16.3346 11.8181C15.9983 11.1421 15.8023 10.4038 15.7586 9.64845C15.7508 9.51271 15.7068 9.38165 15.6313 9.2691C15.5557 9.15655 15.4515 9.0667 15.3296 9.00905L14.0996 8.43026C14.0158 8.3907 13.9484 8.3225 13.9094 8.23768C13.8705 8.15286 13.8624 8.05687 13.8866 7.96663L14.2106 6.75451C14.2325 6.66242 14.2863 6.58126 14.3622 6.52569C14.4381 6.47012 14.5312 6.4438 14.6246 6.45148L15.9716 6.57269C16.1055 6.58421 16.24 6.55905 16.3609 6.49985C16.4818 6.44066 16.5846 6.34962 16.6586 6.23632C17.0728 5.60476 17.6084 5.06373 18.2336 4.64542C18.3483 4.57007 18.4402 4.46439 18.4994 4.33988C18.5587 4.21538 18.583 4.07684 18.5696 3.93935L18.4496 2.57875C18.442 2.48436 18.4681 2.39033 18.5231 2.31365C18.5781 2.23696 18.6585 2.18267 18.7496 2.16057L19.9496 1.83329C20.039 1.80881 20.134 1.81696 20.218 1.85632C20.3019 1.89568 20.3695 1.96372 20.4086 2.04845L20.9816 3.29087C21.0387 3.41401 21.1276 3.51928 21.2391 3.59555C21.3505 3.67183 21.4803 3.71628 21.6146 3.7242C22.3624 3.76835 23.0933 3.96634 23.7626 4.30602C23.8839 4.36632 24.0191 4.39225 24.1538 4.38105C24.2886 4.36984 24.4177 4.32192 24.5276 4.24239L25.6376 3.45754C25.7135 3.40394 25.8056 3.37912 25.8978 3.38743C25.99 3.39575 26.0764 3.43667 26.1416 3.50299L27.0416 4.41208C27.1073 4.478 27.1478 4.56521 27.156 4.65834C27.1643 4.75147 27.1397 4.84455 27.0866 4.92117L26.3006 6.03329C26.2234 6.14452 26.1774 6.27475 26.1673 6.41022C26.1573 6.5457 26.1836 6.68139 26.2436 6.80299C26.5799 7.47905 26.7759 8.21738 26.8196 8.97269C26.8275 9.10842 26.8715 9.23949 26.947 9.35204C27.0225 9.46459 27.1267 9.55443 27.2486 9.61208L28.4786 10.1909C28.5642 10.2289 28.6335 10.2964 28.6742 10.3814C28.7148 10.4664 28.7242 10.5632 28.7006 10.6545L28.6856 10.6424Z" fill="#FF5400"/>
<path d="M21.2872 6.06055C20.6517 6.06055 20.0305 6.25089 19.5022 6.6075C18.9738 6.96412 18.562 7.47099 18.3188 8.06402C18.0756 8.65705 18.012 9.3096 18.136 9.93916C18.2599 10.5687 18.5659 11.147 19.0153 11.6009C19.4646 12.0548 20.0371 12.3639 20.6604 12.4891C21.2837 12.6143 21.9297 12.5501 22.5168 12.3044C23.1039 12.0588 23.6057 11.6428 23.9587 11.1091C24.3118 10.5754 24.5002 9.94789 24.5002 9.306C24.4986 8.44575 24.1596 7.62118 23.5574 7.01289C22.9552 6.40459 22.1389 6.06215 21.2872 6.06055ZM21.2872 11.0454C20.9463 11.0472 20.6125 10.9467 20.3281 10.7567C20.0437 10.5667 19.8216 10.2956 19.6899 9.97796C19.5582 9.66029 19.5228 9.31028 19.5882 8.97227C19.6536 8.63426 19.8169 8.32348 20.0574 8.07931C20.2979 7.83515 20.6047 7.66858 20.939 7.60072C21.2732 7.53287 21.6199 7.56678 21.9351 7.69816C22.2503 7.82954 22.5198 8.05247 22.7094 8.33871C22.899 8.62494 23.0002 8.9616 23.0002 9.306C22.9994 9.7655 22.819 10.2061 22.4982 10.5319C22.1773 10.8576 21.7421 11.0422 21.2872 11.0454Z" fill="#FF5400"/>
</g>
<defs>
<clipPath id="clip0_280_2945">
<rect width="30" height="30" fill="white" transform="translate(0.5)"/>
</clipPath>
</defs>
</svg>
