<svg width="24" height="24" viewBox="0 0 24 24" fill="none" xmlns="http://www.w3.org/2000/svg">
<g clip-path="url(#clip0_1034_2364)">
<path d="M9.20499 12.4001C9.36412 12.4001 9.51673 12.3363 9.62925 12.2226C9.74177 12.1089 9.80499 11.9548 9.80499 11.794C9.80499 11.6333 9.74177 11.4792 9.62925 11.3655C9.51673 11.2518 9.36412 11.188 9.20499 11.188C8.47087 11.188 7.75323 11.4078 7.14276 11.8197C6.5323 12.2316 6.05642 12.817 5.77527 13.502C5.49411 14.187 5.42031 14.9408 5.56318 15.6682C5.70605 16.3955 6.05918 17.0638 6.57795 17.5884C7.09671 18.1131 7.75782 18.4707 8.47772 18.6159C9.19761 18.7612 9.94398 18.6876 10.6225 18.4045C11.301 18.1214 11.8812 17.6415 12.2897 17.0254C12.6983 16.4093 12.9168 15.6847 12.9178 14.9431C12.9178 14.7824 12.8546 14.6282 12.742 14.5146C12.6295 14.4009 12.4769 14.3371 12.3178 14.3371C12.1587 14.3371 12.006 14.4009 11.8935 14.5146C11.781 14.6282 11.7178 14.7824 11.7178 14.9431C11.7178 15.4463 11.57 15.9382 11.2932 16.3565C11.0163 16.7748 10.6228 17.1007 10.1625 17.2931C9.70221 17.4854 9.19576 17.5355 8.70726 17.4369C8.21876 17.3384 7.77018 17.0957 7.41828 16.7396C7.06638 16.3835 6.82698 15.9299 6.73038 15.4363C6.63378 14.9427 6.68432 14.4312 6.87561 13.9666C7.06689 13.502 7.39033 13.1052 7.80498 12.8263C8.21963 12.5475 8.70685 12.3992 9.20499 12.4001Z" fill="#212529"/>
<path d="M1.5343 17.0326L2.4247 17.1901C2.53682 17.5356 2.67482 17.8719 2.8375 18.1962L2.3191 18.9429C2.10797 19.2463 2.00976 19.6154 2.04182 19.9849C2.07388 20.3544 2.23413 20.7005 2.4943 20.9623L3.2455 21.721C3.50462 21.9838 3.84733 22.1457 4.21312 22.1781C4.57892 22.2105 4.94427 22.1113 5.2447 21.898L5.9839 21.3744C6.30498 21.5386 6.63793 21.678 6.9799 21.7914L7.1359 22.6907C7.19775 23.0574 7.38621 23.3901 7.66784 23.6298C7.94947 23.8694 8.30605 24.0005 8.6743 23.9998H9.7375C10.1062 24.0011 10.4633 23.8703 10.7454 23.6306C11.0276 23.3909 11.2164 23.0578 11.2783 22.6907L11.4343 21.7914C11.7763 21.6781 12.1092 21.5387 12.4303 21.3744L13.1695 21.898C13.4699 22.1113 13.8353 22.2105 14.2011 22.1781C14.5669 22.1457 14.9096 21.9838 15.1687 21.721L15.9199 20.9623C16.1801 20.7005 16.3403 20.3544 16.3724 19.9849C16.4044 19.6154 16.3062 19.2463 16.0951 18.9429L15.5767 18.1962C15.7393 17.8719 15.8773 17.5356 15.9895 17.1901L16.8799 17.0326C16.96 17.0221 17.0372 16.9954 17.1067 16.954C17.1763 16.9126 17.2368 16.8573 17.2847 16.7916C17.3326 16.7259 17.3667 16.6511 17.3852 16.5717C17.4036 16.4923 17.4059 16.4099 17.3919 16.3296C17.378 16.2492 17.348 16.1726 17.3039 16.1042C17.2598 16.0359 17.2025 15.9773 17.1353 15.932C17.0682 15.8867 16.9926 15.8556 16.9133 15.8406C16.8339 15.8256 16.7523 15.827 16.6735 15.8447L15.4207 16.0677C15.3077 16.0864 15.2024 16.1374 15.1173 16.2148C15.0322 16.2921 14.9709 16.3925 14.9407 16.5041C14.8074 17.0063 14.6097 17.4888 14.3527 17.9392C14.2961 18.0387 14.2687 18.1525 14.2738 18.2671C14.2789 18.3817 14.3163 18.4925 14.3815 18.5865L15.1183 19.6362C15.1705 19.7084 15.1951 19.7972 15.1876 19.8863C15.1801 19.9754 15.141 20.0588 15.0775 20.121L14.3263 20.8798C14.2646 20.944 14.1821 20.9835 14.0939 20.9911C14.0057 20.9986 13.9178 20.9738 13.8463 20.9211L12.8047 20.1938C12.7117 20.1279 12.602 20.0902 12.4885 20.085C12.375 20.0799 12.2624 20.1075 12.1639 20.1647C11.7195 20.424 11.2435 20.6237 10.7479 20.7586C10.6375 20.7892 10.5381 20.8511 10.4615 20.937C10.3849 21.023 10.3344 21.1293 10.3159 21.2435L10.0951 22.5089C10.0747 22.5894 10.0281 22.6606 9.96282 22.7112C9.89754 22.7617 9.81735 22.7887 9.7351 22.7877H8.6743C8.58799 22.7879 8.50435 22.7575 8.43808 22.7016C8.37181 22.6457 8.32713 22.5681 8.3119 22.4823L8.0911 21.2168C8.07263 21.1027 8.0221 20.9963 7.94552 20.9104C7.86893 20.8244 7.76952 20.7625 7.6591 20.732C7.16216 20.5988 6.68454 20.4008 6.2383 20.1429C6.1398 20.0857 6.0272 20.0581 5.91371 20.0632C5.80022 20.0684 5.69053 20.1061 5.5975 20.172L4.5559 20.8992C4.48441 20.952 4.39647 20.9768 4.30827 20.9692C4.22008 20.9617 4.13755 20.9222 4.0759 20.858L3.3367 20.121C3.27319 20.0588 3.23408 19.9754 3.22659 19.8863C3.21909 19.7972 3.24371 19.7084 3.2959 19.6362L4.0159 18.5841C4.0825 18.4915 4.12169 18.3818 4.12891 18.2676C4.13614 18.1535 4.11109 18.0396 4.0567 17.9392C3.79989 17.4904 3.60222 17.0095 3.4687 16.5089C3.43848 16.3974 3.37717 16.297 3.29208 16.2196C3.20698 16.1423 3.10168 16.0912 2.9887 16.0726L1.7359 15.8495C1.651 15.833 1.57461 15.7867 1.52017 15.7189C1.46573 15.651 1.43674 15.5659 1.4383 15.4786V14.4071C1.43807 14.3199 1.46826 14.2354 1.52356 14.1685C1.57886 14.1016 1.65574 14.0564 1.7407 14.041L2.9935 13.818C3.10648 13.7994 3.21178 13.7483 3.29688 13.671C3.38197 13.5936 3.44328 13.4932 3.4735 13.3817C3.60684 12.8802 3.80452 12.3986 4.0615 11.9489C4.11811 11.8494 4.14546 11.7357 4.14036 11.6211C4.13526 11.5064 4.09791 11.3956 4.0327 11.3017L3.3127 10.2495C3.26051 10.1773 3.23589 10.0885 3.24339 9.99941C3.25088 9.91032 3.28999 9.82696 3.3535 9.76469L4.0783 9.0156C4.13934 8.95071 4.22155 8.9103 4.30977 8.90184C4.39798 8.89337 4.48626 8.91742 4.5583 8.96953L5.5999 9.69681C5.69293 9.76268 5.80262 9.8004 5.91611 9.80556C6.0296 9.81071 6.1422 9.78308 6.2407 9.7259C6.68589 9.4664 7.16272 9.26673 7.6591 9.13196C7.76952 9.10143 7.86893 9.03951 7.94552 8.95355C8.0221 8.8676 8.07263 8.76123 8.0911 8.64711L8.3119 7.38166C8.3316 7.22757 8.29174 7.07175 8.20059 6.9466C8.10944 6.82146 7.97403 6.73663 7.82253 6.70977C7.67104 6.68292 7.51512 6.7161 7.38723 6.80241C7.25934 6.88872 7.16932 7.02152 7.1359 7.17317L6.9799 8.07256C6.63792 8.18586 6.30496 8.32525 5.9839 8.48953L5.2447 7.9659C4.94427 7.75263 4.57892 7.65344 4.21312 7.68582C3.84733 7.7182 3.50462 7.88007 3.2455 8.14287L2.4943 8.90166C2.2345 9.1637 2.07468 9.51002 2.04307 9.8795C2.01145 10.249 2.11006 10.6179 2.3215 10.9211L2.8399 11.6677C2.67724 11.992 2.53924 12.3283 2.4271 12.6738L1.5343 12.8483C1.17047 12.9109 0.840465 13.102 0.60311 13.3875C0.365755 13.673 0.236471 14.0343 0.2383 14.4071V15.4811C0.238176 15.8526 0.368234 16.2122 0.60544 16.4962C0.842645 16.7801 1.17169 16.9702 1.5343 17.0326Z" fill="#212529"/>
<path d="M22.8821 7.05926L22.2101 6.74411C22.1473 6.22523 22.0132 5.71772 21.8117 5.23623L22.2365 4.6229C22.4403 4.32965 22.5352 3.97318 22.5045 3.61623C22.4738 3.25927 22.3194 2.9247 22.0685 2.67139L21.3485 1.94411C21.0977 1.6907 20.7665 1.53476 20.4131 1.50372C20.0597 1.47268 19.7068 1.56853 19.4165 1.77442L18.8165 2.2132C18.3398 2.00964 17.8374 1.87419 17.3237 1.81078L17.0117 1.13199C16.8622 0.80658 16.6037 0.544957 16.2818 0.39327C15.96 0.241584 15.5954 0.209579 15.2525 0.302901L14.2925 0.56472C13.946 0.655832 13.6429 0.868584 13.4375 1.16487C13.2321 1.46115 13.1379 1.82162 13.1717 2.18169L13.2365 2.90896C12.8245 3.22472 12.4571 3.59582 12.1445 4.01199L11.4077 3.94654C11.0545 3.91494 10.7015 4.01016 10.4109 4.21545C10.1203 4.42075 9.91069 4.72297 9.8189 5.06896L9.5597 6.03866C9.46731 6.38506 9.499 6.75329 9.64917 7.0784C9.79934 7.4035 10.0583 7.6646 10.3805 7.81563L11.0525 8.13078C11.1153 8.64966 11.2494 9.15717 11.4509 9.63866L11.0261 10.252C10.8223 10.5452 10.7274 10.9017 10.7581 11.2587C10.7888 11.6156 10.9432 11.9502 11.1941 12.2035L11.9141 12.9308C12.1649 13.1842 12.4961 13.3401 12.8495 13.3712C13.2029 13.4022 13.5558 13.3064 13.8461 13.1005L14.4533 12.6714C14.9246 12.8795 15.4221 13.0206 15.9317 13.0908L16.2437 13.7696C16.3944 14.0931 16.653 14.3528 16.9742 14.5031C17.2954 14.6533 17.6587 14.6846 18.0005 14.5914L18.9605 14.3296C19.3035 14.2373 19.6032 14.0258 19.8069 13.7322C20.0107 13.4386 20.1053 13.0818 20.0741 12.7247L20.0093 11.9805C20.215 11.8227 20.4099 11.651 20.5925 11.4665C20.7819 11.2812 20.9584 11.0827 21.1205 10.8726L21.8573 10.9381C22.2105 10.9697 22.5635 10.8744 22.8541 10.6691C23.1447 10.4638 23.3543 10.1616 23.4461 9.81563L23.7053 8.84593C23.8 8.49789 23.7693 8.12716 23.6185 7.79991C23.4677 7.47265 23.2067 7.21016 22.8821 7.05926ZM22.5485 8.51381L22.2893 9.48351C22.2718 9.55718 22.2288 9.6221 22.1681 9.66656C22.1073 9.71101 22.0329 9.73207 21.9581 9.72593L20.8805 9.64108C20.7734 9.63186 20.6658 9.65199 20.5691 9.69935C20.4724 9.74671 20.3901 9.81954 20.3309 9.91017C19.9996 10.4154 19.5711 10.8482 19.0709 11.1829C18.9812 11.2427 18.9091 11.3258 18.8622 11.4235C18.8153 11.5212 18.7954 11.6299 18.8045 11.7381L18.9005 12.8265C18.9066 12.9021 18.8857 12.9773 18.8417 13.0386C18.7977 13.1 18.7334 13.1434 18.6605 13.1611L17.7005 13.4229C17.629 13.4425 17.553 13.436 17.4858 13.4045C17.4187 13.373 17.3646 13.3186 17.3333 13.2508L16.8749 12.2568C16.8292 12.1583 16.7581 12.0741 16.6689 12.0131C16.5798 11.9521 16.476 11.9165 16.3685 11.9102C15.7672 11.8769 15.1791 11.7193 14.6405 11.4471C14.5442 11.3987 14.4367 11.3774 14.3294 11.3855C14.2221 11.3936 14.119 11.4308 14.0309 11.4932L13.1501 12.1211C13.0894 12.164 13.0157 12.1838 12.9419 12.1772C12.8682 12.1705 12.7991 12.1378 12.7469 12.0847L12.0269 11.3574C11.9782 11.3042 11.9491 11.2357 11.9443 11.1634C11.9395 11.091 11.9593 11.0192 12.0005 10.9599L12.6221 10.0629C12.6825 9.97471 12.7186 9.87185 12.7266 9.76491C12.7346 9.65796 12.7143 9.55079 12.6677 9.45442C12.3987 8.91357 12.2419 8.32291 12.2069 7.71866C12.2006 7.61007 12.1654 7.50522 12.105 7.41518C12.0446 7.32514 11.9612 7.25326 11.8637 7.20714L10.8797 6.74411C10.8126 6.71246 10.7587 6.6579 10.7275 6.59005C10.6964 6.52219 10.6899 6.4454 10.7093 6.3732L10.9685 5.40351C10.986 5.32984 11.029 5.26491 11.0897 5.22046C11.1505 5.176 11.2249 5.15494 11.2997 5.16108L12.3773 5.25805C12.4844 5.26727 12.592 5.24714 12.6887 5.19978C12.7854 5.15243 12.8677 5.0796 12.9269 4.98896C13.2582 4.48371 13.6867 4.05089 14.1869 3.71623C14.2786 3.65596 14.3522 3.57141 14.3996 3.47181C14.447 3.37221 14.4664 3.26137 14.4557 3.15139L14.3597 2.0629C14.3536 1.98739 14.3745 1.91217 14.4185 1.85082C14.4625 1.78947 14.5268 1.74604 14.5997 1.72836L15.5597 1.46654C15.6312 1.44695 15.7072 1.45347 15.7744 1.48496C15.8416 1.51645 15.8956 1.57088 15.9269 1.63866L16.3853 2.6326C16.431 2.73111 16.5021 2.81532 16.5913 2.87635C16.6804 2.93737 16.7842 2.97293 16.8917 2.97926C17.4899 3.01458 18.0747 3.17297 18.6101 3.44472C18.7071 3.49296 18.8153 3.51371 18.9231 3.50474C19.0308 3.49577 19.1342 3.45744 19.2221 3.39381L20.1101 2.76593C20.1708 2.72306 20.2445 2.7032 20.3183 2.70985C20.392 2.7165 20.4611 2.74924 20.5133 2.8023L21.2333 3.52957C21.2858 3.5823 21.3182 3.65207 21.3248 3.72657C21.3314 3.80108 21.3117 3.87554 21.2693 3.93684L20.6405 4.82654C20.5787 4.91552 20.5419 5.0197 20.5339 5.12808C20.5258 5.23646 20.5469 5.34502 20.5949 5.4423C20.8639 5.98314 21.0207 6.5738 21.0557 7.17805C21.062 7.28664 21.0972 7.39149 21.1576 7.48153C21.218 7.57157 21.3014 7.64345 21.3989 7.68957L22.3829 8.1526C22.4513 8.183 22.5068 8.23704 22.5393 8.30501C22.5719 8.37299 22.5794 8.45045 22.5605 8.52351L22.5485 8.51381Z" fill="#212529"/>
<path d="M16.629 4.84863C16.1206 4.84863 15.6237 5.00091 15.201 5.2862C14.7783 5.57149 14.4488 5.97699 14.2543 6.45141C14.0597 6.92583 14.0088 7.44788 14.108 7.95152C14.2072 8.45517 14.452 8.9178 14.8114 9.2809C15.1709 9.64401 15.6289 9.89129 16.1275 9.99147C16.6261 10.0917 17.143 10.0402 17.6126 9.84372C18.0823 9.64721 18.4838 9.31443 18.7662 8.88746C19.0486 8.46049 19.1994 7.95851 19.1994 7.445C19.1981 6.75679 18.9269 6.09714 18.4451 5.61051C17.9634 5.12387 17.3103 4.84991 16.629 4.84863ZM16.629 8.83651C16.3562 8.83795 16.0892 8.75757 15.8617 8.60554C15.6342 8.45352 15.4565 8.2367 15.3511 7.98257C15.2458 7.72843 15.2175 7.44842 15.2698 7.17801C15.3221 6.90761 15.4528 6.65898 15.6451 6.46365C15.8375 6.26831 16.083 6.13506 16.3504 6.08078C16.6178 6.02649 16.8952 6.05362 17.1473 6.15872C17.3994 6.26383 17.615 6.44217 17.7667 6.67116C17.9184 6.90015 17.9994 7.16947 17.9994 7.445C17.9988 7.8126 17.8544 8.16507 17.5978 8.42568C17.3411 8.6863 16.9929 8.83396 16.629 8.83651Z" fill="#212529"/>
</g>
<defs>
<clipPath id="clip0_1034_2364">
<rect width="24" height="24" fill="white"/>
</clipPath>
</defs>
</svg>
